<mxfile host="app.diagrams.net" modified="2023-10-24T13:25:10.261Z" agent="Mozilla/5.0 (X11; Ubuntu; Linux x86_64; rv:109.0) Gecko/20100101 Firefox/119.0" etag="N-rGVxo2uCeVNByYgpTR" version="22.0.6" type="device">
  <diagram id="C5RBs43oDa-KdzZeNtuy" name="Page-1">
    <mxGraphModel dx="3034" dy="797" grid="0" gridSize="10" guides="1" tooltips="1" connect="1" arrows="1" fold="1" page="0" pageScale="1" pageWidth="827" pageHeight="1169" math="0" shadow="0">
      <root>
        <mxCell id="WIyWlLk6GJQsqaUBKTNV-0" />
        <mxCell id="WIyWlLk6GJQsqaUBKTNV-1" parent="WIyWlLk6GJQsqaUBKTNV-0" />
        <mxCell id="wDKFszwRhM4f30pZds1r-0" value="Hebergement" style="swimlane;fontStyle=0;align=center;verticalAlign=top;childLayout=stackLayout;horizontal=1;startSize=31;horizontalStack=0;resizeParent=1;resizeLast=0;collapsible=1;marginBottom=0;rounded=1;shadow=0;strokeWidth=1;labelBackgroundColor=none;fillColor=#F2CC8F;strokeColor=#E07A5F;fontColor=#393C56;" parent="WIyWlLk6GJQsqaUBKTNV-1" vertex="1">
          <mxGeometry x="584" y="1660" width="192" height="143" as="geometry">
            <mxRectangle x="340" y="380" width="170" height="26" as="alternateBounds" />
          </mxGeometry>
        </mxCell>
        <mxCell id="wDKFszwRhM4f30pZds1r-1" value="hebergementID : int" style="text;align=left;verticalAlign=top;spacingLeft=4;spacingRight=4;overflow=hidden;rotatable=0;points=[[0,0.5],[1,0.5]];portConstraint=eastwest;labelBackgroundColor=none;fontColor=#393C56;rounded=1;" parent="wDKFszwRhM4f30pZds1r-0" vertex="1">
          <mxGeometry y="31" width="192" height="26" as="geometry" />
        </mxCell>
        <mxCell id="wDKFszwRhM4f30pZds1r-2" value="" style="line;html=1;strokeWidth=1;align=left;verticalAlign=middle;spacingTop=-1;spacingLeft=3;spacingRight=3;rotatable=0;labelPosition=right;points=[];portConstraint=eastwest;labelBackgroundColor=none;fillColor=#F2CC8F;strokeColor=#E07A5F;fontColor=#393C56;rounded=1;" parent="wDKFszwRhM4f30pZds1r-0" vertex="1">
          <mxGeometry y="57" width="192" height="8" as="geometry" />
        </mxCell>
        <mxCell id="wDKFszwRhM4f30pZds1r-3" value="nomHebergement: str" style="text;align=left;verticalAlign=top;spacingLeft=4;spacingRight=4;overflow=hidden;rotatable=0;points=[[0,0.5],[1,0.5]];portConstraint=eastwest;labelBackgroundColor=none;fontColor=#393C56;rounded=1;" parent="wDKFszwRhM4f30pZds1r-0" vertex="1">
          <mxGeometry y="65" width="192" height="26" as="geometry" />
        </mxCell>
        <mxCell id="wDKFszwRhM4f30pZds1r-4" value="capacitéH : int&#xa;" style="text;align=left;verticalAlign=top;spacingLeft=4;spacingRight=4;overflow=hidden;rotatable=0;points=[[0,0.5],[1,0.5]];portConstraint=eastwest;labelBackgroundColor=none;fontColor=#393C56;rounded=1;" parent="wDKFszwRhM4f30pZds1r-0" vertex="1">
          <mxGeometry y="91" width="192" height="26" as="geometry" />
        </mxCell>
        <mxCell id="wDKFszwRhM4f30pZds1r-5" value="qualitéH : int&#xa;" style="text;align=left;verticalAlign=top;spacingLeft=4;spacingRight=4;overflow=hidden;rotatable=0;points=[[0,0.5],[1,0.5]];portConstraint=eastwest;labelBackgroundColor=none;fontColor=#393C56;rounded=1;" parent="wDKFszwRhM4f30pZds1r-0" vertex="1">
          <mxGeometry y="117" width="192" height="26" as="geometry" />
        </mxCell>
        <mxCell id="wDKFszwRhM4f30pZds1r-12" value="Vehicule" style="swimlane;fontStyle=0;align=center;verticalAlign=top;childLayout=stackLayout;horizontal=1;startSize=31;horizontalStack=0;resizeParent=1;resizeLast=0;collapsible=1;marginBottom=0;rounded=1;shadow=0;strokeWidth=1;labelBackgroundColor=none;fillColor=#F2CC8F;strokeColor=#E07A5F;fontColor=#393C56;" parent="WIyWlLk6GJQsqaUBKTNV-1" vertex="1">
          <mxGeometry x="432" y="2153" width="192" height="117" as="geometry">
            <mxRectangle x="340" y="380" width="170" height="26" as="alternateBounds" />
          </mxGeometry>
        </mxCell>
        <mxCell id="wDKFszwRhM4f30pZds1r-13" value="immatriculation : str " style="text;align=left;verticalAlign=top;spacingLeft=4;spacingRight=4;overflow=hidden;rotatable=0;points=[[0,0.5],[1,0.5]];portConstraint=eastwest;labelBackgroundColor=none;fontColor=#393C56;rounded=1;" parent="wDKFszwRhM4f30pZds1r-12" vertex="1">
          <mxGeometry y="31" width="192" height="26" as="geometry" />
        </mxCell>
        <mxCell id="wDKFszwRhM4f30pZds1r-14" value="" style="line;html=1;strokeWidth=1;align=left;verticalAlign=middle;spacingTop=-1;spacingLeft=3;spacingRight=3;rotatable=0;labelPosition=right;points=[];portConstraint=eastwest;labelBackgroundColor=none;fillColor=#F2CC8F;strokeColor=#E07A5F;fontColor=#393C56;rounded=1;" parent="wDKFszwRhM4f30pZds1r-12" vertex="1">
          <mxGeometry y="57" width="192" height="8" as="geometry" />
        </mxCell>
        <mxCell id="wDKFszwRhM4f30pZds1r-15" value="typeVehicule :str" style="text;align=left;verticalAlign=top;spacingLeft=4;spacingRight=4;overflow=hidden;rotatable=0;points=[[0,0.5],[1,0.5]];portConstraint=eastwest;labelBackgroundColor=none;fontColor=#393C56;rounded=1;" parent="wDKFszwRhM4f30pZds1r-12" vertex="1">
          <mxGeometry y="65" width="192" height="26" as="geometry" />
        </mxCell>
        <mxCell id="wDKFszwRhM4f30pZds1r-16" value="capaciteV : int" style="text;align=left;verticalAlign=top;spacingLeft=4;spacingRight=4;overflow=hidden;rotatable=0;points=[[0,0.5],[1,0.5]];portConstraint=eastwest;labelBackgroundColor=none;fontColor=#393C56;rounded=1;" parent="wDKFszwRhM4f30pZds1r-12" vertex="1">
          <mxGeometry y="91" width="192" height="26" as="geometry" />
        </mxCell>
        <mxCell id="rAAxgLf0EFrrexBY6c0V-5" style="rounded=1;orthogonalLoop=1;jettySize=auto;html=1;entryX=0.5;entryY=1;entryDx=0;entryDy=0;endArrow=none;endFill=0;labelBackgroundColor=none;strokeColor=#E07A5F;fontColor=default;" parent="WIyWlLk6GJQsqaUBKTNV-1" source="wDKFszwRhM4f30pZds1r-17" target="rAAxgLf0EFrrexBY6c0V-4" edge="1">
          <mxGeometry relative="1" as="geometry" />
        </mxCell>
        <mxCell id="wDKFszwRhM4f30pZds1r-17" value="Groupe" style="swimlane;fontStyle=0;align=center;verticalAlign=top;childLayout=stackLayout;horizontal=1;startSize=31;horizontalStack=0;resizeParent=1;resizeLast=0;collapsible=1;marginBottom=0;rounded=1;shadow=0;strokeWidth=1;labelBackgroundColor=none;fillColor=#F2CC8F;strokeColor=#E07A5F;fontColor=#393C56;" parent="WIyWlLk6GJQsqaUBKTNV-1" vertex="1">
          <mxGeometry x="-1290" y="2107.5" width="192" height="72.5" as="geometry">
            <mxRectangle x="340" y="380" width="170" height="26" as="alternateBounds" />
          </mxGeometry>
        </mxCell>
        <mxCell id="wDKFszwRhM4f30pZds1r-18" value="groupeID : int" style="text;align=left;verticalAlign=top;spacingLeft=4;spacingRight=4;overflow=hidden;rotatable=0;points=[[0,0.5],[1,0.5]];portConstraint=eastwest;labelBackgroundColor=none;fontColor=#393C56;rounded=1;" parent="wDKFszwRhM4f30pZds1r-17" vertex="1">
          <mxGeometry y="31" width="192" height="26" as="geometry" />
        </mxCell>
        <mxCell id="wDKFszwRhM4f30pZds1r-19" value="" style="line;html=1;strokeWidth=1;align=left;verticalAlign=middle;spacingTop=-1;spacingLeft=3;spacingRight=3;rotatable=0;labelPosition=right;points=[];portConstraint=eastwest;labelBackgroundColor=none;fillColor=#F2CC8F;strokeColor=#E07A5F;fontColor=#393C56;rounded=1;" parent="wDKFszwRhM4f30pZds1r-17" vertex="1">
          <mxGeometry y="57" width="192" height="8" as="geometry" />
        </mxCell>
        <mxCell id="wDKFszwRhM4f30pZds1r-26" value="Musicien" style="swimlane;fontStyle=0;align=center;verticalAlign=top;childLayout=stackLayout;horizontal=1;startSize=31;horizontalStack=0;resizeParent=1;resizeLast=0;collapsible=1;marginBottom=0;rounded=1;shadow=0;strokeWidth=1;labelBackgroundColor=none;fillColor=#F2CC8F;strokeColor=#E07A5F;fontColor=#393C56;" parent="WIyWlLk6GJQsqaUBKTNV-1" vertex="1">
          <mxGeometry x="-950" y="2400" width="192" height="91" as="geometry">
            <mxRectangle x="340" y="380" width="170" height="26" as="alternateBounds" />
          </mxGeometry>
        </mxCell>
        <mxCell id="wDKFszwRhM4f30pZds1r-27" value="musicienID : int" style="text;align=left;verticalAlign=top;spacingLeft=4;spacingRight=4;overflow=hidden;rotatable=0;points=[[0,0.5],[1,0.5]];portConstraint=eastwest;labelBackgroundColor=none;fontColor=#393C56;rounded=1;" parent="wDKFszwRhM4f30pZds1r-26" vertex="1">
          <mxGeometry y="31" width="192" height="26" as="geometry" />
        </mxCell>
        <mxCell id="wDKFszwRhM4f30pZds1r-28" value="" style="line;html=1;strokeWidth=1;align=left;verticalAlign=middle;spacingTop=-1;spacingLeft=3;spacingRight=3;rotatable=0;labelPosition=right;points=[];portConstraint=eastwest;labelBackgroundColor=none;fillColor=#F2CC8F;strokeColor=#E07A5F;fontColor=#393C56;rounded=1;" parent="wDKFszwRhM4f30pZds1r-26" vertex="1">
          <mxGeometry y="57" width="192" height="8" as="geometry" />
        </mxCell>
        <mxCell id="wDKFszwRhM4f30pZds1r-29" value="nomMusicien : str" style="text;align=left;verticalAlign=top;spacingLeft=4;spacingRight=4;overflow=hidden;rotatable=0;points=[[0,0.5],[1,0.5]];portConstraint=eastwest;labelBackgroundColor=none;fontColor=#393C56;rounded=1;" parent="wDKFszwRhM4f30pZds1r-26" vertex="1">
          <mxGeometry y="65" width="192" height="26" as="geometry" />
        </mxCell>
        <mxCell id="wDKFszwRhM4f30pZds1r-35" style="rounded=1;orthogonalLoop=1;jettySize=auto;html=1;exitX=0.5;exitY=0;exitDx=0;exitDy=0;entryX=0.5;entryY=1;entryDx=0;entryDy=0;endArrow=none;endFill=0;labelBackgroundColor=none;strokeColor=#E07A5F;fontColor=default;" parent="WIyWlLk6GJQsqaUBKTNV-1" source="wDKFszwRhM4f30pZds1r-34" target="wDKFszwRhM4f30pZds1r-17" edge="1">
          <mxGeometry relative="1" as="geometry" />
        </mxCell>
        <mxCell id="wDKFszwRhM4f30pZds1r-36" style="rounded=1;orthogonalLoop=1;jettySize=auto;html=1;exitX=1;exitY=0.5;exitDx=0;exitDy=0;entryX=0;entryY=0.5;entryDx=0;entryDy=0;endArrow=none;endFill=0;labelBackgroundColor=none;strokeColor=#E07A5F;fontColor=default;" parent="WIyWlLk6GJQsqaUBKTNV-1" source="wDKFszwRhM4f30pZds1r-34" target="wDKFszwRhM4f30pZds1r-26" edge="1">
          <mxGeometry relative="1" as="geometry" />
        </mxCell>
        <mxCell id="wDKFszwRhM4f30pZds1r-34" value="&lt;b&gt;MusicienAdditionnel&lt;/b&gt;&lt;br&gt;ramene : bool" style="shape=associativeEntity;whiteSpace=wrap;html=1;align=center;labelBackgroundColor=none;fillColor=#F2CC8F;strokeColor=#E07A5F;fontColor=#393C56;rounded=1;" parent="WIyWlLk6GJQsqaUBKTNV-1" vertex="1">
          <mxGeometry x="-1240" y="2365" width="170" height="70" as="geometry" />
        </mxCell>
        <mxCell id="rAAxgLf0EFrrexBY6c0V-3" style="rounded=1;orthogonalLoop=1;jettySize=auto;html=1;entryX=0.5;entryY=0;entryDx=0;entryDy=0;endArrow=none;endFill=0;exitX=0.5;exitY=1;exitDx=0;exitDy=0;labelBackgroundColor=none;strokeColor=#E07A5F;fontColor=default;" parent="WIyWlLk6GJQsqaUBKTNV-1" source="wDKFszwRhM4f30pZds1r-38" target="rAAxgLf0EFrrexBY6c0V-4" edge="1">
          <mxGeometry relative="1" as="geometry">
            <mxPoint x="-960" y="2005" as="targetPoint" />
          </mxGeometry>
        </mxCell>
        <mxCell id="wDKFszwRhM4f30pZds1r-38" value="Artiste" style="swimlane;fontStyle=0;align=center;verticalAlign=top;childLayout=stackLayout;horizontal=1;startSize=31;horizontalStack=0;resizeParent=1;resizeLast=0;collapsible=1;marginBottom=0;rounded=1;shadow=0;strokeWidth=1;labelBackgroundColor=none;fillColor=#F2CC8F;strokeColor=#E07A5F;fontColor=#393C56;" parent="WIyWlLk6GJQsqaUBKTNV-1" vertex="1">
          <mxGeometry x="-1090" y="1455.5" width="192" height="384.5" as="geometry">
            <mxRectangle x="340" y="380" width="170" height="26" as="alternateBounds" />
          </mxGeometry>
        </mxCell>
        <mxCell id="wDKFszwRhM4f30pZds1r-40" value="" style="line;html=1;strokeWidth=1;align=left;verticalAlign=middle;spacingTop=-1;spacingLeft=3;spacingRight=3;rotatable=0;labelPosition=right;points=[];portConstraint=eastwest;labelBackgroundColor=none;fillColor=#F2CC8F;strokeColor=#E07A5F;fontColor=#393C56;rounded=1;" parent="wDKFszwRhM4f30pZds1r-38" vertex="1">
          <mxGeometry y="31" width="192" height="8" as="geometry" />
        </mxCell>
        <mxCell id="wDKFszwRhM4f30pZds1r-41" value="pseudoArtiste : str" style="text;align=left;verticalAlign=top;spacingLeft=4;spacingRight=4;overflow=hidden;rotatable=0;points=[[0,0.5],[1,0.5]];portConstraint=eastwest;labelBackgroundColor=none;fontColor=#393C56;rounded=1;" parent="wDKFszwRhM4f30pZds1r-38" vertex="1">
          <mxGeometry y="39" width="192" height="26" as="geometry" />
        </mxCell>
        <mxCell id="wDKFszwRhM4f30pZds1r-46" value="nomA : str" style="text;align=left;verticalAlign=top;spacingLeft=4;spacingRight=4;overflow=hidden;rotatable=0;points=[[0,0.5],[1,0.5]];portConstraint=eastwest;labelBackgroundColor=none;fontColor=#393C56;rounded=1;" parent="wDKFszwRhM4f30pZds1r-38" vertex="1">
          <mxGeometry y="65" width="192" height="26" as="geometry" />
        </mxCell>
        <mxCell id="wDKFszwRhM4f30pZds1r-42" value="prenomA : str" style="text;align=left;verticalAlign=top;spacingLeft=4;spacingRight=4;overflow=hidden;rotatable=0;points=[[0,0.5],[1,0.5]];portConstraint=eastwest;labelBackgroundColor=none;fontColor=#393C56;rounded=1;" parent="wDKFszwRhM4f30pZds1r-38" vertex="1">
          <mxGeometry y="91" width="192" height="26" as="geometry" />
        </mxCell>
        <mxCell id="wDKFszwRhM4f30pZds1r-43" value="mailA : str" style="text;align=left;verticalAlign=top;spacingLeft=4;spacingRight=4;overflow=hidden;rotatable=0;points=[[0,0.5],[1,0.5]];portConstraint=eastwest;labelBackgroundColor=none;fontColor=#393C56;rounded=1;" parent="wDKFszwRhM4f30pZds1r-38" vertex="1">
          <mxGeometry y="117" width="192" height="26" as="geometry" />
        </mxCell>
        <mxCell id="wDKFszwRhM4f30pZds1r-44" value="DdNA : date" style="text;align=left;verticalAlign=top;spacingLeft=4;spacingRight=4;overflow=hidden;rotatable=0;points=[[0,0.5],[1,0.5]];portConstraint=eastwest;labelBackgroundColor=none;fontColor=#393C56;rounded=1;" parent="wDKFszwRhM4f30pZds1r-38" vertex="1">
          <mxGeometry y="143" width="192" height="26" as="geometry" />
        </mxCell>
        <mxCell id="wDKFszwRhM4f30pZds1r-47" value="LdN : str" style="text;align=left;verticalAlign=top;spacingLeft=4;spacingRight=4;overflow=hidden;rotatable=0;points=[[0,0.5],[1,0.5]];portConstraint=eastwest;labelBackgroundColor=none;fontColor=#393C56;rounded=1;" parent="wDKFszwRhM4f30pZds1r-38" vertex="1">
          <mxGeometry y="169" width="192" height="26" as="geometry" />
        </mxCell>
        <mxCell id="wDKFszwRhM4f30pZds1r-45" value="adresseN : str" style="text;align=left;verticalAlign=top;spacingLeft=4;spacingRight=4;overflow=hidden;rotatable=0;points=[[0,0.5],[1,0.5]];portConstraint=eastwest;labelBackgroundColor=none;fontColor=#393C56;rounded=1;" parent="wDKFszwRhM4f30pZds1r-38" vertex="1">
          <mxGeometry y="195" width="192" height="26" as="geometry" />
        </mxCell>
        <mxCell id="wDKFszwRhM4f30pZds1r-48" value="numSecuriteSociale : int" style="text;align=left;verticalAlign=top;spacingLeft=4;spacingRight=4;overflow=hidden;rotatable=0;points=[[0,0.5],[1,0.5]];portConstraint=eastwest;labelBackgroundColor=none;fontColor=#393C56;rounded=1;" parent="wDKFszwRhM4f30pZds1r-38" vertex="1">
          <mxGeometry y="221" width="192" height="26" as="geometry" />
        </mxCell>
        <mxCell id="wDKFszwRhM4f30pZds1r-49" value="numCongeSpectacle : int" style="text;align=left;verticalAlign=top;spacingLeft=4;spacingRight=4;overflow=hidden;rotatable=0;points=[[0,0.5],[1,0.5]];portConstraint=eastwest;labelBackgroundColor=none;fontColor=#393C56;rounded=1;" parent="wDKFszwRhM4f30pZds1r-38" vertex="1">
          <mxGeometry y="247" width="192" height="26" as="geometry" />
        </mxCell>
        <mxCell id="wDKFszwRhM4f30pZds1r-62" value="numCNI : int" style="text;align=left;verticalAlign=top;spacingLeft=4;spacingRight=4;overflow=hidden;rotatable=0;points=[[0,0.5],[1,0.5]];portConstraint=eastwest;labelBackgroundColor=none;fontColor=#393C56;rounded=1;" parent="wDKFszwRhM4f30pZds1r-38" vertex="1">
          <mxGeometry y="273" width="192" height="26" as="geometry" />
        </mxCell>
        <mxCell id="wDKFszwRhM4f30pZds1r-63" value="dateDelivranceCNI : date" style="text;align=left;verticalAlign=top;spacingLeft=4;spacingRight=4;overflow=hidden;rotatable=0;points=[[0,0.5],[1,0.5]];portConstraint=eastwest;labelBackgroundColor=none;fontColor=#393C56;rounded=1;" parent="wDKFszwRhM4f30pZds1r-38" vertex="1">
          <mxGeometry y="299" width="192" height="26" as="geometry" />
        </mxCell>
        <mxCell id="wDKFszwRhM4f30pZds1r-39" value="artisteID : int" style="text;align=left;verticalAlign=top;spacingLeft=4;spacingRight=4;overflow=hidden;rotatable=0;points=[[0,0.5],[1,0.5]];portConstraint=eastwest;labelBackgroundColor=none;fontColor=#393C56;rounded=1;" parent="wDKFszwRhM4f30pZds1r-38" vertex="1">
          <mxGeometry y="325" width="192" height="26" as="geometry" />
        </mxCell>
        <mxCell id="wDKFszwRhM4f30pZds1r-64" value="dateExpirationCNI : date" style="text;align=left;verticalAlign=top;spacingLeft=4;spacingRight=4;overflow=hidden;rotatable=0;points=[[0,0.5],[1,0.5]];portConstraint=eastwest;labelBackgroundColor=none;fontColor=#393C56;rounded=1;" parent="wDKFszwRhM4f30pZds1r-38" vertex="1">
          <mxGeometry y="351" width="192" height="26" as="geometry" />
        </mxCell>
        <mxCell id="wDKFszwRhM4f30pZds1r-65" value="MaterielSalle" style="swimlane;fontStyle=0;align=center;verticalAlign=top;childLayout=stackLayout;horizontal=1;startSize=31;horizontalStack=0;resizeParent=1;resizeLast=0;collapsible=1;marginBottom=0;rounded=1;shadow=0;strokeWidth=1;labelBackgroundColor=none;fillColor=#F2CC8F;strokeColor=#E07A5F;fontColor=#393C56;" parent="WIyWlLk6GJQsqaUBKTNV-1" vertex="1">
          <mxGeometry x="900" y="1230" width="190" height="120" as="geometry">
            <mxRectangle x="340" y="380" width="170" height="26" as="alternateBounds" />
          </mxGeometry>
        </mxCell>
        <mxCell id="wDKFszwRhM4f30pZds1r-66" value="materielSalleID : int" style="text;align=left;verticalAlign=top;spacingLeft=4;spacingRight=4;overflow=hidden;rotatable=0;points=[[0,0.5],[1,0.5]];portConstraint=eastwest;labelBackgroundColor=none;fontColor=#393C56;rounded=1;" parent="wDKFszwRhM4f30pZds1r-65" vertex="1">
          <mxGeometry y="31" width="190" height="26" as="geometry" />
        </mxCell>
        <mxCell id="wDKFszwRhM4f30pZds1r-67" value="" style="line;html=1;strokeWidth=1;align=left;verticalAlign=middle;spacingTop=-1;spacingLeft=3;spacingRight=3;rotatable=0;labelPosition=right;points=[];portConstraint=eastwest;labelBackgroundColor=none;fillColor=#F2CC8F;strokeColor=#E07A5F;fontColor=#393C56;rounded=1;" parent="wDKFszwRhM4f30pZds1r-65" vertex="1">
          <mxGeometry y="57" width="190" height="8" as="geometry" />
        </mxCell>
        <mxCell id="wDKFszwRhM4f30pZds1r-68" value="nomMaterielS : str" style="text;align=left;verticalAlign=top;spacingLeft=4;spacingRight=4;overflow=hidden;rotatable=0;points=[[0,0.5],[1,0.5]];portConstraint=eastwest;labelBackgroundColor=none;fontColor=#393C56;rounded=1;" parent="wDKFszwRhM4f30pZds1r-65" vertex="1">
          <mxGeometry y="65" width="190" height="26" as="geometry" />
        </mxCell>
        <mxCell id="wDKFszwRhM4f30pZds1r-70" value="disponible : bool" style="text;align=left;verticalAlign=top;spacingLeft=4;spacingRight=4;overflow=hidden;rotatable=0;points=[[0,0.5],[1,0.5]];portConstraint=eastwest;labelBackgroundColor=none;fontColor=#393C56;rounded=1;" parent="wDKFszwRhM4f30pZds1r-65" vertex="1">
          <mxGeometry y="91" width="190" height="26" as="geometry" />
        </mxCell>
        <mxCell id="AfBvXeTGOrys0jYBdzUV-38" style="edgeStyle=orthogonalEdgeStyle;rounded=1;orthogonalLoop=1;jettySize=auto;html=1;entryX=0.5;entryY=1;entryDx=0;entryDy=0;endArrow=none;endFill=0;labelBackgroundColor=none;strokeColor=#E07A5F;fontColor=default;" parent="WIyWlLk6GJQsqaUBKTNV-1" source="AfBvXeTGOrys0jYBdzUV-22" target="AfBvXeTGOrys0jYBdzUV-37" edge="1">
          <mxGeometry relative="1" as="geometry" />
        </mxCell>
        <mxCell id="rAAxgLf0EFrrexBY6c0V-7" style="rounded=1;orthogonalLoop=1;jettySize=auto;html=1;entryX=0.5;entryY=0;entryDx=0;entryDy=0;endArrow=none;endFill=0;labelBackgroundColor=none;strokeColor=#E07A5F;fontColor=default;" parent="WIyWlLk6GJQsqaUBKTNV-1" source="AfBvXeTGOrys0jYBdzUV-22" target="rAAxgLf0EFrrexBY6c0V-6" edge="1">
          <mxGeometry relative="1" as="geometry">
            <mxPoint x="-509" y="1470" as="targetPoint" />
          </mxGeometry>
        </mxCell>
        <mxCell id="AfBvXeTGOrys0jYBdzUV-22" value="PersonelTechnique" style="swimlane;fontStyle=0;align=center;verticalAlign=top;childLayout=stackLayout;horizontal=1;startSize=31;horizontalStack=0;resizeParent=1;resizeLast=0;collapsible=1;marginBottom=0;rounded=1;shadow=0;strokeWidth=1;labelBackgroundColor=none;fillColor=#F2CC8F;strokeColor=#E07A5F;fontColor=#393C56;" parent="WIyWlLk6GJQsqaUBKTNV-1" vertex="1">
          <mxGeometry x="-610" y="1250" width="190" height="130" as="geometry">
            <mxRectangle x="340" y="380" width="170" height="26" as="alternateBounds" />
          </mxGeometry>
        </mxCell>
        <mxCell id="AfBvXeTGOrys0jYBdzUV-23" value="PersonnelTechniqueID:int" style="text;align=left;verticalAlign=top;spacingLeft=4;spacingRight=4;overflow=hidden;rotatable=0;points=[[0,0.5],[1,0.5]];portConstraint=eastwest;labelBackgroundColor=none;fontColor=#393C56;rounded=1;" parent="AfBvXeTGOrys0jYBdzUV-22" vertex="1">
          <mxGeometry y="31" width="190" height="26" as="geometry" />
        </mxCell>
        <mxCell id="AfBvXeTGOrys0jYBdzUV-24" value="" style="line;html=1;strokeWidth=1;align=left;verticalAlign=middle;spacingTop=-1;spacingLeft=3;spacingRight=3;rotatable=0;labelPosition=right;points=[];portConstraint=eastwest;labelBackgroundColor=none;fillColor=#F2CC8F;strokeColor=#E07A5F;fontColor=#393C56;rounded=1;" parent="AfBvXeTGOrys0jYBdzUV-22" vertex="1">
          <mxGeometry y="57" width="190" height="8" as="geometry" />
        </mxCell>
        <mxCell id="TyVPyKYXxjt4fqLiTHCA-40" value="&lt;div align=&quot;left&quot;&gt;nom str&lt;/div&gt;&lt;div align=&quot;left&quot;&gt;prenom str&lt;br&gt;&lt;/div&gt;&lt;div&gt;&lt;br&gt;&lt;/div&gt;" style="text;html=1;strokeColor=none;fillColor=none;align=left;verticalAlign=middle;whiteSpace=wrap;rounded=0;fontColor=#393C56;" parent="AfBvXeTGOrys0jYBdzUV-22" vertex="1">
          <mxGeometry y="65" width="190" height="65" as="geometry" />
        </mxCell>
        <mxCell id="rAAxgLf0EFrrexBY6c0V-53" style="rounded=1;orthogonalLoop=1;jettySize=auto;html=1;entryX=0.5;entryY=0;entryDx=0;entryDy=0;endArrow=none;endFill=0;labelBackgroundColor=none;strokeColor=#E07A5F;fontColor=default;" parent="WIyWlLk6GJQsqaUBKTNV-1" source="09vynYddfmvWjdpuQkQc-22" target="09vynYddfmvWjdpuQkQc-38" edge="1">
          <mxGeometry relative="1" as="geometry" />
        </mxCell>
        <mxCell id="09vynYddfmvWjdpuQkQc-22" value="&lt;b&gt;Invitations&lt;/b&gt;&lt;br&gt;quantité int" style="shape=associativeEntity;whiteSpace=wrap;html=1;align=center;labelBackgroundColor=none;fillColor=#F2CC8F;strokeColor=#E07A5F;fontColor=#393C56;rounded=1;" parent="WIyWlLk6GJQsqaUBKTNV-1" vertex="1">
          <mxGeometry x="-230" y="1189" width="140" height="100" as="geometry" />
        </mxCell>
        <mxCell id="AfBvXeTGOrys0jYBdzUV-39" style="edgeStyle=orthogonalEdgeStyle;rounded=1;orthogonalLoop=1;jettySize=auto;html=1;entryX=0.5;entryY=0;entryDx=0;entryDy=0;endArrow=none;endFill=0;labelBackgroundColor=none;strokeColor=#E07A5F;fontColor=default;" parent="WIyWlLk6GJQsqaUBKTNV-1" source="AfBvXeTGOrys0jYBdzUV-27" target="AfBvXeTGOrys0jYBdzUV-37" edge="1">
          <mxGeometry relative="1" as="geometry" />
        </mxCell>
        <mxCell id="AfBvXeTGOrys0jYBdzUV-27" value="Role" style="swimlane;fontStyle=0;align=center;verticalAlign=top;childLayout=stackLayout;horizontal=1;startSize=31;horizontalStack=0;resizeParent=1;resizeLast=0;collapsible=1;marginBottom=0;rounded=1;shadow=0;strokeWidth=1;labelBackgroundColor=none;fillColor=#F2CC8F;strokeColor=#E07A5F;fontColor=#393C56;" parent="WIyWlLk6GJQsqaUBKTNV-1" vertex="1">
          <mxGeometry x="-610" y="730" width="190" height="91" as="geometry">
            <mxRectangle x="340" y="380" width="170" height="26" as="alternateBounds" />
          </mxGeometry>
        </mxCell>
        <mxCell id="AfBvXeTGOrys0jYBdzUV-28" value="RoleId: int" style="text;align=left;verticalAlign=top;spacingLeft=4;spacingRight=4;overflow=hidden;rotatable=0;points=[[0,0.5],[1,0.5]];portConstraint=eastwest;labelBackgroundColor=none;fontColor=#393C56;rounded=1;" parent="AfBvXeTGOrys0jYBdzUV-27" vertex="1">
          <mxGeometry y="31" width="190" height="26" as="geometry" />
        </mxCell>
        <mxCell id="AfBvXeTGOrys0jYBdzUV-29" value="" style="line;html=1;strokeWidth=1;align=left;verticalAlign=middle;spacingTop=-1;spacingLeft=3;spacingRight=3;rotatable=0;labelPosition=right;points=[];portConstraint=eastwest;labelBackgroundColor=none;fillColor=#F2CC8F;strokeColor=#E07A5F;fontColor=#393C56;rounded=1;" parent="AfBvXeTGOrys0jYBdzUV-27" vertex="1">
          <mxGeometry y="57" width="190" height="8" as="geometry" />
        </mxCell>
        <mxCell id="AfBvXeTGOrys0jYBdzUV-34" value="NomRole: str" style="text;align=left;verticalAlign=top;spacingLeft=4;spacingRight=4;overflow=hidden;rotatable=0;points=[[0,0.5],[1,0.5]];portConstraint=eastwest;labelBackgroundColor=none;fontColor=#393C56;rounded=1;" parent="AfBvXeTGOrys0jYBdzUV-27" vertex="1">
          <mxGeometry y="65" width="190" height="26" as="geometry" />
        </mxCell>
        <mxCell id="AfBvXeTGOrys0jYBdzUV-37" value="RolePersonel" style="shape=rhombus;perimeter=rhombusPerimeter;whiteSpace=wrap;html=1;align=center;fillStyle=auto;labelBackgroundColor=none;fillColor=#F2CC8F;strokeColor=#E07A5F;fontColor=#393C56;rounded=1;" parent="WIyWlLk6GJQsqaUBKTNV-1" vertex="1">
          <mxGeometry x="-595" y="1040" width="160" height="100" as="geometry" />
        </mxCell>
        <mxCell id="09vynYddfmvWjdpuQkQc-28" value="Catering" style="swimlane;fontStyle=0;align=center;verticalAlign=top;childLayout=stackLayout;horizontal=1;startSize=31;horizontalStack=0;resizeParent=1;resizeLast=0;collapsible=1;marginBottom=0;rounded=1;shadow=0;strokeWidth=1;labelBackgroundColor=none;fillColor=#F2CC8F;strokeColor=#E07A5F;fontColor=#393C56;" parent="WIyWlLk6GJQsqaUBKTNV-1" vertex="1">
          <mxGeometry x="584" y="1887.75" width="190" height="92.25" as="geometry">
            <mxRectangle x="340" y="380" width="170" height="26" as="alternateBounds" />
          </mxGeometry>
        </mxCell>
        <mxCell id="09vynYddfmvWjdpuQkQc-29" value="cateringId :int" style="text;align=left;verticalAlign=top;spacingLeft=4;spacingRight=4;overflow=hidden;rotatable=0;points=[[0,0.5],[1,0.5]];portConstraint=eastwest;labelBackgroundColor=none;fontColor=#393C56;rounded=1;" parent="09vynYddfmvWjdpuQkQc-28" vertex="1">
          <mxGeometry y="31" width="190" height="26" as="geometry" />
        </mxCell>
        <mxCell id="09vynYddfmvWjdpuQkQc-30" value="" style="line;html=1;strokeWidth=1;align=left;verticalAlign=middle;spacingTop=-1;spacingLeft=3;spacingRight=3;rotatable=0;labelPosition=right;points=[];portConstraint=eastwest;labelBackgroundColor=none;fillColor=#F2CC8F;strokeColor=#E07A5F;fontColor=#393C56;rounded=1;" parent="09vynYddfmvWjdpuQkQc-28" vertex="1">
          <mxGeometry y="57" width="190" height="8" as="geometry" />
        </mxCell>
        <mxCell id="09vynYddfmvWjdpuQkQc-31" value="description_demande TEXT" style="text;align=left;verticalAlign=top;spacingLeft=4;spacingRight=4;overflow=hidden;rotatable=0;points=[[0,0.5],[1,0.5]];portConstraint=eastwest;labelBackgroundColor=none;fontColor=#393C56;rounded=1;" parent="09vynYddfmvWjdpuQkQc-28" vertex="1">
          <mxGeometry y="65" width="190" height="26" as="geometry" />
        </mxCell>
        <mxCell id="AfBvXeTGOrys0jYBdzUV-46" style="rounded=1;orthogonalLoop=1;jettySize=auto;html=1;entryX=0.049;entryY=0.526;entryDx=0;entryDy=0;endArrow=none;endFill=0;labelBackgroundColor=none;strokeColor=#E07A5F;fontColor=default;entryPerimeter=0;" parent="WIyWlLk6GJQsqaUBKTNV-1" source="AfBvXeTGOrys0jYBdzUV-40" target="AfBvXeTGOrys0jYBdzUV-45" edge="1">
          <mxGeometry relative="1" as="geometry" />
        </mxCell>
        <mxCell id="AfBvXeTGOrys0jYBdzUV-60" style="edgeStyle=orthogonalEdgeStyle;rounded=1;orthogonalLoop=1;jettySize=auto;html=1;entryX=0.5;entryY=1;entryDx=0;entryDy=0;endArrow=none;endFill=0;labelBackgroundColor=none;strokeColor=#E07A5F;fontColor=default;" parent="WIyWlLk6GJQsqaUBKTNV-1" source="AfBvXeTGOrys0jYBdzUV-40" target="AfBvXeTGOrys0jYBdzUV-59" edge="1">
          <mxGeometry relative="1" as="geometry" />
        </mxCell>
        <mxCell id="rAAxgLf0EFrrexBY6c0V-20" style="rounded=1;orthogonalLoop=1;jettySize=auto;html=1;entryX=0.511;entryY=0.037;entryDx=0;entryDy=0;endArrow=none;endFill=0;labelBackgroundColor=none;strokeColor=#E07A5F;fontColor=default;entryPerimeter=0;" parent="WIyWlLk6GJQsqaUBKTNV-1" source="AfBvXeTGOrys0jYBdzUV-40" target="rAAxgLf0EFrrexBY6c0V-18" edge="1">
          <mxGeometry relative="1" as="geometry" />
        </mxCell>
        <mxCell id="rAAxgLf0EFrrexBY6c0V-23" style="rounded=1;orthogonalLoop=1;jettySize=auto;html=1;exitX=0.885;exitY=-0.003;exitDx=0;exitDy=0;entryX=0.04;entryY=0.533;entryDx=0;entryDy=0;endArrow=none;endFill=0;labelBackgroundColor=none;strokeColor=#E07A5F;fontColor=default;exitPerimeter=0;entryPerimeter=0;" parent="WIyWlLk6GJQsqaUBKTNV-1" source="AfBvXeTGOrys0jYBdzUV-40" target="rAAxgLf0EFrrexBY6c0V-22" edge="1">
          <mxGeometry relative="1" as="geometry" />
        </mxCell>
        <mxCell id="rAAxgLf0EFrrexBY6c0V-44" style="rounded=1;orthogonalLoop=1;jettySize=auto;html=1;entryX=0.036;entryY=0.506;entryDx=0;entryDy=0;endArrow=none;endFill=0;labelBackgroundColor=none;strokeColor=#E07A5F;fontColor=default;entryPerimeter=0;" parent="WIyWlLk6GJQsqaUBKTNV-1" target="rAAxgLf0EFrrexBY6c0V-43" edge="1">
          <mxGeometry relative="1" as="geometry">
            <mxPoint x="260" y="1430" as="sourcePoint" />
          </mxGeometry>
        </mxCell>
        <mxCell id="AfBvXeTGOrys0jYBdzUV-40" value="Salle" style="swimlane;fontStyle=0;align=center;verticalAlign=top;childLayout=stackLayout;horizontal=1;startSize=31;horizontalStack=0;resizeParent=1;resizeLast=0;collapsible=1;marginBottom=0;rounded=1;shadow=0;strokeWidth=1;labelBackgroundColor=none;fillColor=#F2CC8F;strokeColor=#E07A5F;fontColor=#393C56;" parent="WIyWlLk6GJQsqaUBKTNV-1" vertex="1">
          <mxGeometry x="81" y="1250" width="190" height="120" as="geometry">
            <mxRectangle x="340" y="380" width="170" height="26" as="alternateBounds" />
          </mxGeometry>
        </mxCell>
        <mxCell id="AfBvXeTGOrys0jYBdzUV-41" value="Salle_ID : int" style="text;align=left;verticalAlign=top;spacingLeft=4;spacingRight=4;overflow=hidden;rotatable=0;points=[[0,0.5],[1,0.5]];portConstraint=eastwest;labelBackgroundColor=none;fontColor=#393C56;rounded=1;" parent="AfBvXeTGOrys0jYBdzUV-40" vertex="1">
          <mxGeometry y="31" width="190" height="26" as="geometry" />
        </mxCell>
        <mxCell id="AfBvXeTGOrys0jYBdzUV-42" value="" style="line;html=1;strokeWidth=1;align=left;verticalAlign=middle;spacingTop=-1;spacingLeft=3;spacingRight=3;rotatable=0;labelPosition=right;points=[];portConstraint=eastwest;labelBackgroundColor=none;fillColor=#F2CC8F;strokeColor=#E07A5F;fontColor=#393C56;rounded=1;" parent="AfBvXeTGOrys0jYBdzUV-40" vertex="1">
          <mxGeometry y="57" width="190" height="8" as="geometry" />
        </mxCell>
        <mxCell id="AfBvXeTGOrys0jYBdzUV-43" value="Nom de la salle: str" style="text;align=left;verticalAlign=top;spacingLeft=4;spacingRight=4;overflow=hidden;rotatable=0;points=[[0,0.5],[1,0.5]];portConstraint=eastwest;labelBackgroundColor=none;fontColor=#393C56;rounded=1;" parent="AfBvXeTGOrys0jYBdzUV-40" vertex="1">
          <mxGeometry y="65" width="190" height="26" as="geometry" />
        </mxCell>
        <mxCell id="AfBvXeTGOrys0jYBdzUV-44" value="CapacitéTotaleSalle:str&#xa;" style="text;align=left;verticalAlign=top;spacingLeft=4;spacingRight=4;overflow=hidden;rotatable=0;points=[[0,0.5],[1,0.5]];portConstraint=eastwest;labelBackgroundColor=none;fontColor=#393C56;rounded=1;" parent="AfBvXeTGOrys0jYBdzUV-40" vertex="1">
          <mxGeometry y="91" width="190" height="26" as="geometry" />
        </mxCell>
        <mxCell id="AfBvXeTGOrys0jYBdzUV-47" style="rounded=1;orthogonalLoop=1;jettySize=auto;html=1;entryX=0;entryY=0.5;entryDx=0;entryDy=0;endArrow=none;endFill=0;labelBackgroundColor=none;strokeColor=#E07A5F;fontColor=default;" parent="WIyWlLk6GJQsqaUBKTNV-1" source="AfBvXeTGOrys0jYBdzUV-45" target="wDKFszwRhM4f30pZds1r-68" edge="1">
          <mxGeometry relative="1" as="geometry" />
        </mxCell>
        <mxCell id="AfBvXeTGOrys0jYBdzUV-45" value="avoir" style="shape=rhombus;perimeter=rhombusPerimeter;whiteSpace=wrap;html=1;align=center;fillStyle=auto;labelBackgroundColor=none;fillColor=#F2CC8F;strokeColor=#E07A5F;fontColor=#393C56;rounded=1;" parent="WIyWlLk6GJQsqaUBKTNV-1" vertex="1">
          <mxGeometry x="500" y="1255" width="160" height="100" as="geometry" />
        </mxCell>
        <mxCell id="rAAxgLf0EFrrexBY6c0V-52" style="rounded=1;orthogonalLoop=1;jettySize=auto;html=1;entryX=0.5;entryY=0;entryDx=0;entryDy=0;endArrow=none;endFill=0;labelBackgroundColor=none;strokeColor=#E07A5F;fontColor=default;" parent="WIyWlLk6GJQsqaUBKTNV-1" source="AfBvXeTGOrys0jYBdzUV-49" target="09vynYddfmvWjdpuQkQc-22" edge="1">
          <mxGeometry relative="1" as="geometry" />
        </mxCell>
        <mxCell id="AfBvXeTGOrys0jYBdzUV-49" value="TypePlace" style="swimlane;fontStyle=0;align=center;verticalAlign=top;childLayout=stackLayout;horizontal=1;startSize=31;horizontalStack=0;resizeParent=1;resizeLast=0;collapsible=1;marginBottom=0;rounded=1;shadow=0;strokeWidth=1;labelBackgroundColor=none;fillColor=#F2CC8F;strokeColor=#E07A5F;fontColor=#393C56;" parent="WIyWlLk6GJQsqaUBKTNV-1" vertex="1">
          <mxGeometry x="-114" y="730" width="190" height="120" as="geometry">
            <mxRectangle x="340" y="380" width="170" height="26" as="alternateBounds" />
          </mxGeometry>
        </mxCell>
        <mxCell id="AfBvXeTGOrys0jYBdzUV-50" value="Type_ID : int" style="text;align=left;verticalAlign=top;spacingLeft=4;spacingRight=4;overflow=hidden;rotatable=0;points=[[0,0.5],[1,0.5]];portConstraint=eastwest;labelBackgroundColor=none;fontColor=#393C56;rounded=1;" parent="AfBvXeTGOrys0jYBdzUV-49" vertex="1">
          <mxGeometry y="31" width="190" height="26" as="geometry" />
        </mxCell>
        <mxCell id="AfBvXeTGOrys0jYBdzUV-51" value="" style="line;html=1;strokeWidth=1;align=left;verticalAlign=middle;spacingTop=-1;spacingLeft=3;spacingRight=3;rotatable=0;labelPosition=right;points=[];portConstraint=eastwest;labelBackgroundColor=none;fillColor=#F2CC8F;strokeColor=#E07A5F;fontColor=#393C56;rounded=1;" parent="AfBvXeTGOrys0jYBdzUV-49" vertex="1">
          <mxGeometry y="57" width="190" height="8" as="geometry" />
        </mxCell>
        <mxCell id="AfBvXeTGOrys0jYBdzUV-52" value="NomPlace:str" style="text;align=left;verticalAlign=top;spacingLeft=4;spacingRight=4;overflow=hidden;rotatable=0;points=[[0,0.5],[1,0.5]];portConstraint=eastwest;labelBackgroundColor=none;fontColor=#393C56;rounded=1;" parent="AfBvXeTGOrys0jYBdzUV-49" vertex="1">
          <mxGeometry y="65" width="190" height="26" as="geometry" />
        </mxCell>
        <mxCell id="AfBvXeTGOrys0jYBdzUV-53" value="Description" style="text;align=left;verticalAlign=top;spacingLeft=4;spacingRight=4;overflow=hidden;rotatable=0;points=[[0,0.5],[1,0.5]];portConstraint=eastwest;labelBackgroundColor=none;fontColor=#393C56;rounded=1;" parent="AfBvXeTGOrys0jYBdzUV-49" vertex="1">
          <mxGeometry y="91" width="190" height="26" as="geometry" />
        </mxCell>
        <mxCell id="AfBvXeTGOrys0jYBdzUV-61" style="rounded=1;orthogonalLoop=1;jettySize=auto;html=1;entryX=0.5;entryY=1;entryDx=0;entryDy=0;endArrow=none;endFill=0;labelBackgroundColor=none;strokeColor=#E07A5F;fontColor=default;" parent="WIyWlLk6GJQsqaUBKTNV-1" source="AfBvXeTGOrys0jYBdzUV-59" target="AfBvXeTGOrys0jYBdzUV-49" edge="1">
          <mxGeometry relative="1" as="geometry" />
        </mxCell>
        <mxCell id="AfBvXeTGOrys0jYBdzUV-59" value="&lt;div&gt;&lt;b&gt;SalleTypePlace&lt;/b&gt;&lt;/div&gt;&lt;div&gt;capacité : int&lt;br&gt;&lt;/div&gt;" style="shape=associativeEntity;whiteSpace=wrap;html=1;align=center;labelBackgroundColor=none;fillColor=#F2CC8F;strokeColor=#E07A5F;fontColor=#393C56;rounded=1;" parent="WIyWlLk6GJQsqaUBKTNV-1" vertex="1">
          <mxGeometry x="106" y="1050" width="140" height="100" as="geometry" />
        </mxCell>
        <mxCell id="rAAxgLf0EFrrexBY6c0V-8" style="rounded=1;orthogonalLoop=1;jettySize=auto;html=1;entryX=0.5;entryY=1;entryDx=0;entryDy=0;endArrow=none;endFill=0;labelBackgroundColor=none;strokeColor=#E07A5F;fontColor=default;" parent="WIyWlLk6GJQsqaUBKTNV-1" source="09vynYddfmvWjdpuQkQc-38" target="rAAxgLf0EFrrexBY6c0V-6" edge="1">
          <mxGeometry relative="1" as="geometry" />
        </mxCell>
        <mxCell id="rAAxgLf0EFrrexBY6c0V-10" style="rounded=1;orthogonalLoop=1;jettySize=auto;html=1;entryX=0.5;entryY=0;entryDx=0;entryDy=0;endArrow=none;endFill=0;labelBackgroundColor=none;strokeColor=#E07A5F;fontColor=default;" parent="WIyWlLk6GJQsqaUBKTNV-1" source="09vynYddfmvWjdpuQkQc-38" target="rAAxgLf0EFrrexBY6c0V-9" edge="1">
          <mxGeometry relative="1" as="geometry" />
        </mxCell>
        <mxCell id="rAAxgLf0EFrrexBY6c0V-19" style="rounded=1;orthogonalLoop=1;jettySize=auto;html=1;exitX=1;exitY=0;exitDx=0;exitDy=0;entryX=0.5;entryY=0.968;entryDx=0;entryDy=0;endArrow=none;endFill=0;labelBackgroundColor=none;strokeColor=#E07A5F;fontColor=default;entryPerimeter=0;" parent="WIyWlLk6GJQsqaUBKTNV-1" source="09vynYddfmvWjdpuQkQc-38" target="rAAxgLf0EFrrexBY6c0V-18" edge="1">
          <mxGeometry relative="1" as="geometry" />
        </mxCell>
        <mxCell id="rAAxgLf0EFrrexBY6c0V-38" style="rounded=1;orthogonalLoop=1;jettySize=auto;html=1;entryX=0;entryY=0.5;entryDx=0;entryDy=0;endArrow=none;endFill=0;labelBackgroundColor=none;strokeColor=#E07A5F;fontColor=default;" parent="WIyWlLk6GJQsqaUBKTNV-1" source="09vynYddfmvWjdpuQkQc-38" target="rAAxgLf0EFrrexBY6c0V-37" edge="1">
          <mxGeometry relative="1" as="geometry" />
        </mxCell>
        <mxCell id="09vynYddfmvWjdpuQkQc-38" value="Concert" style="swimlane;fontStyle=0;align=center;verticalAlign=top;childLayout=stackLayout;horizontal=1;startSize=31;horizontalStack=0;resizeParent=1;resizeLast=0;collapsible=1;marginBottom=0;rounded=1;shadow=0;strokeWidth=1;labelBackgroundColor=none;fillColor=#F2CC8F;strokeColor=#E07A5F;fontColor=#393C56;" parent="WIyWlLk6GJQsqaUBKTNV-1" vertex="1">
          <mxGeometry x="-230" y="1610" width="190" height="160" as="geometry">
            <mxRectangle x="340" y="380" width="170" height="26" as="alternateBounds" />
          </mxGeometry>
        </mxCell>
        <mxCell id="09vynYddfmvWjdpuQkQc-39" value="Concert_id int " style="text;align=left;verticalAlign=top;spacingLeft=4;spacingRight=4;overflow=hidden;rotatable=0;points=[[0,0.5],[1,0.5]];portConstraint=eastwest;labelBackgroundColor=none;fontColor=#393C56;rounded=1;" parent="09vynYddfmvWjdpuQkQc-38" vertex="1">
          <mxGeometry y="31" width="190" height="26" as="geometry" />
        </mxCell>
        <mxCell id="09vynYddfmvWjdpuQkQc-40" value="" style="line;html=1;strokeWidth=1;align=left;verticalAlign=middle;spacingTop=-1;spacingLeft=3;spacingRight=3;rotatable=0;labelPosition=right;points=[];portConstraint=eastwest;labelBackgroundColor=none;fillColor=#F2CC8F;strokeColor=#E07A5F;fontColor=#393C56;rounded=1;" parent="09vynYddfmvWjdpuQkQc-38" vertex="1">
          <mxGeometry y="57" width="190" height="8" as="geometry" />
        </mxCell>
        <mxCell id="09vynYddfmvWjdpuQkQc-41" value="nom_concert str" style="text;align=left;verticalAlign=top;spacingLeft=4;spacingRight=4;overflow=hidden;rotatable=0;points=[[0,0.5],[1,0.5]];portConstraint=eastwest;labelBackgroundColor=none;fontColor=#393C56;rounded=1;" parent="09vynYddfmvWjdpuQkQc-38" vertex="1">
          <mxGeometry y="65" width="190" height="26" as="geometry" />
        </mxCell>
        <mxCell id="09vynYddfmvWjdpuQkQc-42" value="date_debut_concert date&#xa;&#xa;Date_fin_concert date&#xa;&#xa;" style="text;align=left;verticalAlign=top;spacingLeft=4;spacingRight=4;overflow=hidden;rotatable=0;points=[[0,0.5],[1,0.5]];portConstraint=eastwest;labelBackgroundColor=none;fontColor=#393C56;rounded=1;" parent="09vynYddfmvWjdpuQkQc-38" vertex="1">
          <mxGeometry y="91" width="190" height="69" as="geometry" />
        </mxCell>
        <mxCell id="rAAxgLf0EFrrexBY6c0V-54" style="rounded=1;orthogonalLoop=1;jettySize=auto;html=1;entryX=0.51;entryY=0.969;entryDx=0;entryDy=0;entryPerimeter=0;endArrow=none;endFill=0;labelBackgroundColor=none;strokeColor=#E07A5F;fontColor=default;" parent="WIyWlLk6GJQsqaUBKTNV-1" source="n8KyGZuKO7ytAvBbDKDA-0" target="rAAxgLf0EFrrexBY6c0V-55" edge="1">
          <mxGeometry relative="1" as="geometry">
            <mxPoint x="-509.99999999999955" y="1860" as="targetPoint" />
          </mxGeometry>
        </mxCell>
        <mxCell id="n8KyGZuKO7ytAvBbDKDA-0" value="FicheTechnique" style="swimlane;fontStyle=0;align=center;verticalAlign=top;childLayout=stackLayout;horizontal=1;startSize=31;horizontalStack=0;resizeParent=1;resizeLast=0;collapsible=1;marginBottom=0;rounded=1;shadow=0;strokeWidth=1;labelBackgroundColor=none;fillColor=#F2CC8F;strokeColor=#E07A5F;fontColor=#393C56;" parent="WIyWlLk6GJQsqaUBKTNV-1" vertex="1">
          <mxGeometry x="-652" y="1915" width="190" height="95" as="geometry">
            <mxRectangle x="340" y="380" width="170" height="26" as="alternateBounds" />
          </mxGeometry>
        </mxCell>
        <mxCell id="n8KyGZuKO7ytAvBbDKDA-1" value="id_Fiche_technique int" style="text;align=left;verticalAlign=top;spacingLeft=4;spacingRight=4;overflow=hidden;rotatable=0;points=[[0,0.5],[1,0.5]];portConstraint=eastwest;labelBackgroundColor=none;fontColor=#393C56;rounded=1;" parent="n8KyGZuKO7ytAvBbDKDA-0" vertex="1">
          <mxGeometry y="31" width="190" height="26" as="geometry" />
        </mxCell>
        <mxCell id="n8KyGZuKO7ytAvBbDKDA-2" value="" style="line;html=1;strokeWidth=1;align=left;verticalAlign=middle;spacingTop=-1;spacingLeft=3;spacingRight=3;rotatable=0;labelPosition=right;points=[];portConstraint=eastwest;labelBackgroundColor=none;fillColor=#F2CC8F;strokeColor=#E07A5F;fontColor=#393C56;rounded=1;" parent="n8KyGZuKO7ytAvBbDKDA-0" vertex="1">
          <mxGeometry y="57" width="190" height="8" as="geometry" />
        </mxCell>
        <mxCell id="n8KyGZuKO7ytAvBbDKDA-3" value="installation_linecheck TEXT" style="text;align=left;verticalAlign=top;spacingLeft=4;spacingRight=4;overflow=hidden;rotatable=0;points=[[0,0.5],[1,0.5]];portConstraint=eastwest;labelBackgroundColor=none;fontColor=#393C56;rounded=1;" parent="n8KyGZuKO7ytAvBbDKDA-0" vertex="1">
          <mxGeometry y="65" width="190" height="26" as="geometry" />
        </mxCell>
        <mxCell id="n8KyGZuKO7ytAvBbDKDA-10" value="Lieu" style="swimlane;fontStyle=0;align=center;verticalAlign=top;childLayout=stackLayout;horizontal=1;startSize=25;horizontalStack=0;resizeParent=1;resizeLast=0;collapsible=1;marginBottom=0;rounded=1;shadow=0;strokeWidth=1;labelBackgroundColor=none;fillColor=#F2CC8F;strokeColor=#E07A5F;fontColor=#393C56;" parent="WIyWlLk6GJQsqaUBKTNV-1" vertex="1">
          <mxGeometry x="630" y="1422.5" width="192" height="137.5" as="geometry">
            <mxRectangle x="340" y="380" width="170" height="26" as="alternateBounds" />
          </mxGeometry>
        </mxCell>
        <mxCell id="n8KyGZuKO7ytAvBbDKDA-11" value="LieuID : int" style="text;align=left;verticalAlign=top;spacingLeft=4;spacingRight=4;overflow=hidden;rotatable=0;points=[[0,0.5],[1,0.5]];portConstraint=eastwest;labelBackgroundColor=none;fontColor=#393C56;rounded=1;" parent="n8KyGZuKO7ytAvBbDKDA-10" vertex="1">
          <mxGeometry y="25" width="192" height="26" as="geometry" />
        </mxCell>
        <mxCell id="n8KyGZuKO7ytAvBbDKDA-12" value="" style="line;html=1;strokeWidth=1;align=left;verticalAlign=middle;spacingTop=-1;spacingLeft=3;spacingRight=3;rotatable=0;labelPosition=right;points=[];portConstraint=eastwest;labelBackgroundColor=none;fillColor=#F2CC8F;strokeColor=#E07A5F;fontColor=#393C56;rounded=1;" parent="n8KyGZuKO7ytAvBbDKDA-10" vertex="1">
          <mxGeometry y="51" width="192" height="8" as="geometry" />
        </mxCell>
        <mxCell id="n8KyGZuKO7ytAvBbDKDA-13" value="nomVille: str" style="text;align=left;verticalAlign=top;spacingLeft=4;spacingRight=4;overflow=hidden;rotatable=0;points=[[0,0.5],[1,0.5]];portConstraint=eastwest;labelBackgroundColor=none;fontColor=#393C56;rounded=1;" parent="n8KyGZuKO7ytAvBbDKDA-10" vertex="1">
          <mxGeometry y="59" width="192" height="26" as="geometry" />
        </mxCell>
        <mxCell id="n8KyGZuKO7ytAvBbDKDA-14" value="Adresse" style="text;align=left;verticalAlign=top;spacingLeft=4;spacingRight=4;overflow=hidden;rotatable=0;points=[[0,0.5],[1,0.5]];portConstraint=eastwest;labelBackgroundColor=none;fontColor=#393C56;rounded=1;" parent="n8KyGZuKO7ytAvBbDKDA-10" vertex="1">
          <mxGeometry y="85" width="192" height="26" as="geometry" />
        </mxCell>
        <mxCell id="n8KyGZuKO7ytAvBbDKDA-15" value="departement" style="text;align=left;verticalAlign=top;spacingLeft=4;spacingRight=4;overflow=hidden;rotatable=0;points=[[0,0.5],[1,0.5]];portConstraint=eastwest;labelBackgroundColor=none;fontColor=#393C56;rounded=1;" parent="n8KyGZuKO7ytAvBbDKDA-10" vertex="1">
          <mxGeometry y="111" width="192" height="26" as="geometry" />
        </mxCell>
        <mxCell id="n8KyGZuKO7ytAvBbDKDA-16" value="ORGANISATION" style="swimlane;fontStyle=0;align=center;verticalAlign=top;childLayout=stackLayout;horizontal=1;startSize=31;horizontalStack=0;resizeParent=1;resizeLast=0;collapsible=1;marginBottom=0;rounded=1;shadow=0;strokeWidth=1;labelBackgroundColor=none;fillColor=#F2CC8F;strokeColor=#E07A5F;fontColor=#393C56;" parent="WIyWlLk6GJQsqaUBKTNV-1" vertex="1">
          <mxGeometry x="-338" y="2105" width="192" height="117" as="geometry">
            <mxRectangle x="340" y="380" width="170" height="26" as="alternateBounds" />
          </mxGeometry>
        </mxCell>
        <mxCell id="n8KyGZuKO7ytAvBbDKDA-17" value="nomORGA : str" style="text;align=left;verticalAlign=top;spacingLeft=4;spacingRight=4;overflow=hidden;rotatable=0;points=[[0,0.5],[1,0.5]];portConstraint=eastwest;labelBackgroundColor=none;fontColor=#393C56;rounded=1;" parent="n8KyGZuKO7ytAvBbDKDA-16" vertex="1">
          <mxGeometry y="31" width="192" height="26" as="geometry" />
        </mxCell>
        <mxCell id="n8KyGZuKO7ytAvBbDKDA-18" value="" style="line;html=1;strokeWidth=1;align=left;verticalAlign=middle;spacingTop=-1;spacingLeft=3;spacingRight=3;rotatable=0;labelPosition=right;points=[];portConstraint=eastwest;labelBackgroundColor=none;fillColor=#F2CC8F;strokeColor=#E07A5F;fontColor=#393C56;rounded=1;" parent="n8KyGZuKO7ytAvBbDKDA-16" vertex="1">
          <mxGeometry y="57" width="192" height="8" as="geometry" />
        </mxCell>
        <mxCell id="n8KyGZuKO7ytAvBbDKDA-19" value="MotDePasse: str" style="text;align=left;verticalAlign=top;spacingLeft=4;spacingRight=4;overflow=hidden;rotatable=0;points=[[0,0.5],[1,0.5]];portConstraint=eastwest;labelBackgroundColor=none;fontColor=#393C56;rounded=1;" parent="n8KyGZuKO7ytAvBbDKDA-16" vertex="1">
          <mxGeometry y="65" width="192" height="26" as="geometry" />
        </mxCell>
        <mxCell id="n8KyGZuKO7ytAvBbDKDA-41" value="type:str" style="text;align=left;verticalAlign=top;spacingLeft=4;spacingRight=4;overflow=hidden;rotatable=0;points=[[0,0.5],[1,0.5]];portConstraint=eastwest;labelBackgroundColor=none;fontColor=#393C56;rounded=1;" parent="n8KyGZuKO7ytAvBbDKDA-16" vertex="1">
          <mxGeometry y="91" width="192" height="26" as="geometry" />
        </mxCell>
        <mxCell id="wDKFszwRhM4f30pZds1r-86" value="MaterielArtiste" style="swimlane;fontStyle=0;align=center;verticalAlign=top;childLayout=stackLayout;horizontal=1;startSize=31;horizontalStack=0;resizeParent=1;resizeLast=0;collapsible=1;marginBottom=0;rounded=1;shadow=0;strokeWidth=1;labelBackgroundColor=none;fillColor=#F2CC8F;strokeColor=#E07A5F;fontColor=#393C56;" parent="WIyWlLk6GJQsqaUBKTNV-1" vertex="1">
          <mxGeometry x="-1070" y="1005" width="190" height="117" as="geometry">
            <mxRectangle x="340" y="380" width="170" height="26" as="alternateBounds" />
          </mxGeometry>
        </mxCell>
        <mxCell id="wDKFszwRhM4f30pZds1r-87" value="materielArtisteID : int" style="text;align=left;verticalAlign=top;spacingLeft=4;spacingRight=4;overflow=hidden;rotatable=0;points=[[0,0.5],[1,0.5]];portConstraint=eastwest;labelBackgroundColor=none;fontColor=#393C56;rounded=1;" parent="wDKFszwRhM4f30pZds1r-86" vertex="1">
          <mxGeometry y="31" width="190" height="26" as="geometry" />
        </mxCell>
        <mxCell id="wDKFszwRhM4f30pZds1r-88" value="" style="line;html=1;strokeWidth=1;align=left;verticalAlign=middle;spacingTop=-1;spacingLeft=3;spacingRight=3;rotatable=0;labelPosition=right;points=[];portConstraint=eastwest;labelBackgroundColor=none;fillColor=#F2CC8F;strokeColor=#E07A5F;fontColor=#393C56;rounded=1;" parent="wDKFszwRhM4f30pZds1r-86" vertex="1">
          <mxGeometry y="57" width="190" height="8" as="geometry" />
        </mxCell>
        <mxCell id="wDKFszwRhM4f30pZds1r-89" value="nomMaterielArt : str" style="text;align=left;verticalAlign=top;spacingLeft=4;spacingRight=4;overflow=hidden;rotatable=0;points=[[0,0.5],[1,0.5]];portConstraint=eastwest;labelBackgroundColor=none;fontColor=#393C56;rounded=1;" parent="wDKFszwRhM4f30pZds1r-86" vertex="1">
          <mxGeometry y="65" width="190" height="26" as="geometry" />
        </mxCell>
        <mxCell id="wDKFszwRhM4f30pZds1r-90" value="disponible : bool" style="text;align=left;verticalAlign=top;spacingLeft=4;spacingRight=4;overflow=hidden;rotatable=0;points=[[0,0.5],[1,0.5]];portConstraint=eastwest;labelBackgroundColor=none;fontColor=#393C56;rounded=1;" parent="wDKFszwRhM4f30pZds1r-86" vertex="1">
          <mxGeometry y="91" width="190" height="26" as="geometry" />
        </mxCell>
        <mxCell id="rAAxgLf0EFrrexBY6c0V-27" style="rounded=1;orthogonalLoop=1;jettySize=auto;html=1;entryX=0.5;entryY=1;entryDx=0;entryDy=0;endArrow=none;endFill=0;labelBackgroundColor=none;strokeColor=#E07A5F;fontColor=default;" parent="WIyWlLk6GJQsqaUBKTNV-1" source="n8KyGZuKO7ytAvBbDKDA-22" target="rAAxgLf0EFrrexBY6c0V-25" edge="1">
          <mxGeometry relative="1" as="geometry" />
        </mxCell>
        <mxCell id="n8KyGZuKO7ytAvBbDKDA-22" value="planSalle" style="swimlane;fontStyle=0;align=center;verticalAlign=top;childLayout=stackLayout;horizontal=1;startSize=31;horizontalStack=0;resizeParent=1;resizeLast=0;collapsible=1;marginBottom=0;rounded=1;shadow=0;strokeWidth=1;labelBackgroundColor=none;fillColor=#F2CC8F;strokeColor=#E07A5F;fontColor=#393C56;" parent="WIyWlLk6GJQsqaUBKTNV-1" vertex="1">
          <mxGeometry x="578" y="1020" width="192" height="100" as="geometry">
            <mxRectangle x="340" y="380" width="170" height="26" as="alternateBounds" />
          </mxGeometry>
        </mxCell>
        <mxCell id="n8KyGZuKO7ytAvBbDKDA-23" value="PlanID:int" style="text;align=left;verticalAlign=top;spacingLeft=4;spacingRight=4;overflow=hidden;rotatable=0;points=[[0,0.5],[1,0.5]];portConstraint=eastwest;labelBackgroundColor=none;fontColor=#393C56;rounded=1;" parent="n8KyGZuKO7ytAvBbDKDA-22" vertex="1">
          <mxGeometry y="31" width="192" height="26" as="geometry" />
        </mxCell>
        <mxCell id="n8KyGZuKO7ytAvBbDKDA-24" value="" style="line;html=1;strokeWidth=1;align=left;verticalAlign=middle;spacingTop=-1;spacingLeft=3;spacingRight=3;rotatable=0;labelPosition=right;points=[];portConstraint=eastwest;labelBackgroundColor=none;fillColor=#F2CC8F;strokeColor=#E07A5F;fontColor=#393C56;rounded=1;" parent="n8KyGZuKO7ytAvBbDKDA-22" vertex="1">
          <mxGeometry y="57" width="192" height="8" as="geometry" />
        </mxCell>
        <mxCell id="n8KyGZuKO7ytAvBbDKDA-25" value="planSalle:blob" style="text;align=left;verticalAlign=top;spacingLeft=4;spacingRight=4;overflow=hidden;rotatable=0;points=[[0,0.5],[1,0.5]];portConstraint=eastwest;labelBackgroundColor=none;fontColor=#393C56;rounded=1;" parent="n8KyGZuKO7ytAvBbDKDA-22" vertex="1">
          <mxGeometry y="65" width="192" height="26" as="geometry" />
        </mxCell>
        <mxCell id="rAAxgLf0EFrrexBY6c0V-26" style="rounded=1;orthogonalLoop=1;jettySize=auto;html=1;entryX=0.5;entryY=0;entryDx=0;entryDy=0;endArrow=none;endFill=0;exitX=0.5;exitY=1;exitDx=0;exitDy=0;labelBackgroundColor=none;strokeColor=#E07A5F;fontColor=default;" parent="WIyWlLk6GJQsqaUBKTNV-1" source="n8KyGZuKO7ytAvBbDKDA-34" target="rAAxgLf0EFrrexBY6c0V-25" edge="1">
          <mxGeometry relative="1" as="geometry">
            <mxPoint x="654" y="729" as="sourcePoint" />
            <mxPoint x="654" y="769" as="targetPoint" />
          </mxGeometry>
        </mxCell>
        <mxCell id="rAAxgLf0EFrrexBY6c0V-61" style="rounded=1;orthogonalLoop=1;jettySize=auto;html=1;entryX=0.5;entryY=1;entryDx=0;entryDy=0;endArrow=none;endFill=0;labelBackgroundColor=none;strokeColor=#E07A5F;fontColor=default;" parent="WIyWlLk6GJQsqaUBKTNV-1" source="n8KyGZuKO7ytAvBbDKDA-34" target="rAAxgLf0EFrrexBY6c0V-60" edge="1">
          <mxGeometry relative="1" as="geometry" />
        </mxCell>
        <mxCell id="n8KyGZuKO7ytAvBbDKDA-34" value="Scene" style="swimlane;fontStyle=0;align=center;verticalAlign=top;childLayout=stackLayout;horizontal=1;startSize=31;horizontalStack=0;resizeParent=1;resizeLast=0;collapsible=1;marginBottom=0;rounded=1;shadow=0;strokeWidth=1;labelBackgroundColor=none;fillColor=#F2CC8F;strokeColor=#E07A5F;fontColor=#393C56;" parent="WIyWlLk6GJQsqaUBKTNV-1" vertex="1">
          <mxGeometry x="578" y="570" width="192" height="150" as="geometry">
            <mxRectangle x="340" y="380" width="170" height="26" as="alternateBounds" />
          </mxGeometry>
        </mxCell>
        <mxCell id="n8KyGZuKO7ytAvBbDKDA-35" value="SceneID:int" style="text;align=left;verticalAlign=top;spacingLeft=4;spacingRight=4;overflow=hidden;rotatable=0;points=[[0,0.5],[1,0.5]];portConstraint=eastwest;labelBackgroundColor=none;fontColor=#393C56;rounded=1;" parent="n8KyGZuKO7ytAvBbDKDA-34" vertex="1">
          <mxGeometry y="31" width="192" height="26" as="geometry" />
        </mxCell>
        <mxCell id="n8KyGZuKO7ytAvBbDKDA-36" value="" style="line;html=1;strokeWidth=1;align=left;verticalAlign=middle;spacingTop=-1;spacingLeft=3;spacingRight=3;rotatable=0;labelPosition=right;points=[];portConstraint=eastwest;labelBackgroundColor=none;fillColor=#F2CC8F;strokeColor=#E07A5F;fontColor=#393C56;rounded=1;" parent="n8KyGZuKO7ytAvBbDKDA-34" vertex="1">
          <mxGeometry y="57" width="192" height="8" as="geometry" />
        </mxCell>
        <mxCell id="n8KyGZuKO7ytAvBbDKDA-38" value="planScene:blob" style="text;align=left;verticalAlign=top;spacingLeft=4;spacingRight=4;overflow=hidden;rotatable=0;points=[[0,0.5],[1,0.5]];portConstraint=eastwest;labelBackgroundColor=none;fontColor=#393C56;rounded=1;" parent="n8KyGZuKO7ytAvBbDKDA-34" vertex="1">
          <mxGeometry y="65" width="192" height="26" as="geometry" />
        </mxCell>
        <mxCell id="n8KyGZuKO7ytAvBbDKDA-39" value="DimensionProfondeur:double" style="text;align=left;verticalAlign=top;spacingLeft=4;spacingRight=4;overflow=hidden;rotatable=0;points=[[0,0.5],[1,0.5]];portConstraint=eastwest;labelBackgroundColor=none;fontColor=#393C56;rounded=1;" parent="n8KyGZuKO7ytAvBbDKDA-34" vertex="1">
          <mxGeometry y="91" width="192" height="26" as="geometry" />
        </mxCell>
        <mxCell id="n8KyGZuKO7ytAvBbDKDA-40" value="DimensionOuverture:double" style="text;align=left;verticalAlign=top;spacingLeft=4;spacingRight=4;overflow=hidden;rotatable=0;points=[[0,0.5],[1,0.5]];portConstraint=eastwest;labelBackgroundColor=none;fontColor=#393C56;rounded=1;" parent="n8KyGZuKO7ytAvBbDKDA-34" vertex="1">
          <mxGeometry y="117" width="192" height="26" as="geometry" />
        </mxCell>
        <mxCell id="a5jgiMxUOnsnWHItlYc4-2" value="1,n" style="text;html=1;strokeColor=none;fillColor=none;align=center;verticalAlign=middle;whiteSpace=wrap;rounded=1;labelBackgroundColor=none;fontColor=#393C56;" parent="WIyWlLk6GJQsqaUBKTNV-1" vertex="1">
          <mxGeometry x="91" y="1210" width="60" height="30" as="geometry" />
        </mxCell>
        <mxCell id="a5jgiMxUOnsnWHItlYc4-3" value="0,n" style="text;html=1;strokeColor=none;fillColor=none;align=center;verticalAlign=middle;whiteSpace=wrap;rounded=1;labelBackgroundColor=none;fontColor=#393C56;" parent="WIyWlLk6GJQsqaUBKTNV-1" vertex="1">
          <mxGeometry x="46" y="900" width="60" height="30" as="geometry" />
        </mxCell>
        <mxCell id="a5jgiMxUOnsnWHItlYc4-4" value="0,n" style="text;html=1;strokeColor=none;fillColor=none;align=center;verticalAlign=middle;whiteSpace=wrap;rounded=1;labelBackgroundColor=none;fontColor=#393C56;" parent="WIyWlLk6GJQsqaUBKTNV-1" vertex="1">
          <mxGeometry x="271" y="1325" width="60" height="30" as="geometry" />
        </mxCell>
        <mxCell id="a5jgiMxUOnsnWHItlYc4-5" value="1,1" style="text;html=1;strokeColor=none;fillColor=none;align=center;verticalAlign=middle;whiteSpace=wrap;rounded=1;labelBackgroundColor=none;fontColor=#393C56;" parent="WIyWlLk6GJQsqaUBKTNV-1" vertex="1">
          <mxGeometry x="840" y="1270" width="60" height="30" as="geometry" />
        </mxCell>
        <mxCell id="n8KyGZuKO7ytAvBbDKDA-54" value="plan" style="swimlane;fontStyle=0;align=center;verticalAlign=top;childLayout=stackLayout;horizontal=1;startSize=31;horizontalStack=0;resizeParent=1;resizeLast=0;collapsible=1;marginBottom=0;rounded=1;shadow=0;strokeWidth=1;labelBackgroundColor=none;fillColor=#F2CC8F;strokeColor=#E07A5F;fontColor=#393C56;" parent="WIyWlLk6GJQsqaUBKTNV-1" vertex="1">
          <mxGeometry x="468" y="120" width="192" height="120" as="geometry">
            <mxRectangle x="340" y="380" width="170" height="26" as="alternateBounds" />
          </mxGeometry>
        </mxCell>
        <mxCell id="n8KyGZuKO7ytAvBbDKDA-55" value="PlanID:int" style="text;align=left;verticalAlign=top;spacingLeft=4;spacingRight=4;overflow=hidden;rotatable=0;points=[[0,0.5],[1,0.5]];portConstraint=eastwest;labelBackgroundColor=none;fontColor=#393C56;rounded=1;" parent="n8KyGZuKO7ytAvBbDKDA-54" vertex="1">
          <mxGeometry y="31" width="192" height="26" as="geometry" />
        </mxCell>
        <mxCell id="n8KyGZuKO7ytAvBbDKDA-57" value="" style="line;html=1;strokeWidth=1;align=left;verticalAlign=middle;spacingTop=-1;spacingLeft=3;spacingRight=3;rotatable=0;labelPosition=right;points=[];portConstraint=eastwest;labelBackgroundColor=none;fillColor=#F2CC8F;strokeColor=#E07A5F;fontColor=#393C56;rounded=1;" parent="n8KyGZuKO7ytAvBbDKDA-54" vertex="1">
          <mxGeometry y="57" width="192" height="8" as="geometry" />
        </mxCell>
        <mxCell id="n8KyGZuKO7ytAvBbDKDA-58" value="plan_scene:blob" style="text;align=left;verticalAlign=top;spacingLeft=4;spacingRight=4;overflow=hidden;rotatable=0;points=[[0,0.5],[1,0.5]];portConstraint=eastwest;labelBackgroundColor=none;fontColor=#393C56;rounded=1;" parent="n8KyGZuKO7ytAvBbDKDA-54" vertex="1">
          <mxGeometry y="65" width="192" height="26" as="geometry" />
        </mxCell>
        <mxCell id="TyVPyKYXxjt4fqLiTHCA-37" value="plan_feu:blob" style="text;align=left;verticalAlign=top;spacingLeft=4;spacingRight=4;overflow=hidden;rotatable=0;points=[[0,0.5],[1,0.5]];portConstraint=eastwest;labelBackgroundColor=none;fontColor=#393C56;rounded=1;" parent="n8KyGZuKO7ytAvBbDKDA-54" vertex="1">
          <mxGeometry y="91" width="192" height="26" as="geometry" />
        </mxCell>
        <mxCell id="a5jgiMxUOnsnWHItlYc4-6" value="0,n" style="text;html=1;strokeColor=none;fillColor=none;align=center;verticalAlign=middle;whiteSpace=wrap;rounded=1;labelBackgroundColor=none;fontColor=#393C56;" parent="WIyWlLk6GJQsqaUBKTNV-1" vertex="1">
          <mxGeometry x="-1000" y="2435" width="60" height="30" as="geometry" />
        </mxCell>
        <mxCell id="a5jgiMxUOnsnWHItlYc4-7" value="1,n" style="text;html=1;strokeColor=none;fillColor=none;align=center;verticalAlign=middle;whiteSpace=wrap;rounded=1;labelBackgroundColor=none;fontColor=#393C56;" parent="WIyWlLk6GJQsqaUBKTNV-1" vertex="1">
          <mxGeometry x="-1185" y="2265" width="60" height="30" as="geometry" />
        </mxCell>
        <mxCell id="a5jgiMxUOnsnWHItlYc4-8" value="0,n" style="text;html=1;strokeColor=none;fillColor=none;align=center;verticalAlign=middle;whiteSpace=wrap;rounded=1;labelBackgroundColor=none;fontColor=#393C56;" parent="WIyWlLk6GJQsqaUBKTNV-1" vertex="1">
          <mxGeometry x="-522" y="820" width="60" height="30" as="geometry" />
        </mxCell>
        <mxCell id="a5jgiMxUOnsnWHItlYc4-9" value="1,1" style="text;html=1;strokeColor=none;fillColor=none;align=center;verticalAlign=middle;whiteSpace=wrap;rounded=1;labelBackgroundColor=none;fontColor=#393C56;" parent="WIyWlLk6GJQsqaUBKTNV-1" vertex="1">
          <mxGeometry x="-522" y="1220" width="60" height="30" as="geometry" />
        </mxCell>
        <mxCell id="a5jgiMxUOnsnWHItlYc4-10" value="1,1" style="text;html=1;strokeColor=none;fillColor=none;align=center;verticalAlign=middle;whiteSpace=wrap;rounded=1;labelBackgroundColor=none;fontColor=#393C56;" parent="WIyWlLk6GJQsqaUBKTNV-1" vertex="1">
          <mxGeometry x="-1079" y="2415" width="60" height="30" as="geometry" />
        </mxCell>
        <mxCell id="a5jgiMxUOnsnWHItlYc4-11" value="1,1" style="text;html=1;strokeColor=none;fillColor=none;align=center;verticalAlign=middle;whiteSpace=wrap;rounded=1;labelBackgroundColor=none;fontColor=#393C56;" parent="WIyWlLk6GJQsqaUBKTNV-1" vertex="1">
          <mxGeometry x="-1150" y="2333" width="60" height="30" as="geometry" />
        </mxCell>
        <mxCell id="a5jgiMxUOnsnWHItlYc4-12" value="1,1" style="text;html=1;strokeColor=none;fillColor=none;align=center;verticalAlign=middle;whiteSpace=wrap;rounded=1;labelBackgroundColor=none;fontColor=#393C56;" parent="WIyWlLk6GJQsqaUBKTNV-1" vertex="1">
          <mxGeometry x="106" y="1150" width="60" height="30" as="geometry" />
        </mxCell>
        <mxCell id="a5jgiMxUOnsnWHItlYc4-13" value="1,1" style="text;html=1;strokeColor=none;fillColor=none;align=center;verticalAlign=middle;whiteSpace=wrap;rounded=1;labelBackgroundColor=none;fontColor=#393C56;" parent="WIyWlLk6GJQsqaUBKTNV-1" vertex="1">
          <mxGeometry x="106" y="1010" width="60" height="30" as="geometry" />
        </mxCell>
        <mxCell id="n8KyGZuKO7ytAvBbDKDA-62" value="Materiel" style="swimlane;fontStyle=0;align=center;verticalAlign=top;childLayout=stackLayout;horizontal=1;startSize=31;horizontalStack=0;resizeParent=1;resizeLast=0;collapsible=1;marginBottom=0;rounded=1;shadow=0;strokeWidth=1;labelBackgroundColor=none;fillColor=#F2CC8F;strokeColor=#E07A5F;fontColor=#393C56;" parent="WIyWlLk6GJQsqaUBKTNV-1" vertex="1">
          <mxGeometry x="91" y="2345" width="190" height="120" as="geometry">
            <mxRectangle x="340" y="380" width="170" height="26" as="alternateBounds" />
          </mxGeometry>
        </mxCell>
        <mxCell id="n8KyGZuKO7ytAvBbDKDA-63" value="MaterielID : int" style="text;align=left;verticalAlign=top;spacingLeft=4;spacingRight=4;overflow=hidden;rotatable=0;points=[[0,0.5],[1,0.5]];portConstraint=eastwest;labelBackgroundColor=none;fontColor=#393C56;rounded=1;" parent="n8KyGZuKO7ytAvBbDKDA-62" vertex="1">
          <mxGeometry y="31" width="190" height="26" as="geometry" />
        </mxCell>
        <mxCell id="n8KyGZuKO7ytAvBbDKDA-64" value="" style="line;html=1;strokeWidth=1;align=left;verticalAlign=middle;spacingTop=-1;spacingLeft=3;spacingRight=3;rotatable=0;labelPosition=right;points=[];portConstraint=eastwest;labelBackgroundColor=none;fillColor=#F2CC8F;strokeColor=#E07A5F;fontColor=#393C56;rounded=1;" parent="n8KyGZuKO7ytAvBbDKDA-62" vertex="1">
          <mxGeometry y="57" width="190" height="8" as="geometry" />
        </mxCell>
        <mxCell id="n8KyGZuKO7ytAvBbDKDA-65" value="nomMateriel : str&#xa;&#xa;&#xa;" style="text;align=left;verticalAlign=top;spacingLeft=4;spacingRight=4;overflow=hidden;rotatable=0;points=[[0,0.5],[1,0.5]];portConstraint=eastwest;labelBackgroundColor=none;fontColor=#393C56;rounded=1;" parent="n8KyGZuKO7ytAvBbDKDA-62" vertex="1">
          <mxGeometry y="65" width="190" height="25" as="geometry" />
        </mxCell>
        <mxCell id="a5jgiMxUOnsnWHItlYc4-17" style="rounded=1;orthogonalLoop=1;jettySize=auto;html=1;endArrow=none;endFill=0;exitX=0.5;exitY=0;exitDx=0;exitDy=0;entryX=0.5;entryY=1;entryDx=0;entryDy=0;labelBackgroundColor=none;strokeColor=#E07A5F;fontColor=default;" parent="WIyWlLk6GJQsqaUBKTNV-1" source="a5jgiMxUOnsnWHItlYc4-21" target="09vynYddfmvWjdpuQkQc-38" edge="1">
          <mxGeometry relative="1" as="geometry">
            <mxPoint x="140" y="1688" as="sourcePoint" />
            <mxPoint x="-135" y="1810" as="targetPoint" />
          </mxGeometry>
        </mxCell>
        <mxCell id="n8KyGZuKO7ytAvBbDKDA-67" style="rounded=1;orthogonalLoop=1;jettySize=auto;html=1;startArrow=none;startFill=0;endArrow=none;endFill=0;entryX=0.5;entryY=1;entryDx=0;entryDy=0;exitX=0;exitY=0.5;exitDx=0;exitDy=0;labelBackgroundColor=none;strokeColor=#E07A5F;fontColor=default;" parent="WIyWlLk6GJQsqaUBKTNV-1" source="n8KyGZuKO7ytAvBbDKDA-65" target="a5jgiMxUOnsnWHItlYc4-21" edge="1">
          <mxGeometry relative="1" as="geometry">
            <mxPoint x="406" y="1791.0057471264367" as="sourcePoint" />
            <mxPoint x="186" y="1789.75" as="targetPoint" />
          </mxGeometry>
        </mxCell>
        <mxCell id="a5jgiMxUOnsnWHItlYc4-19" value="0,n" style="text;html=1;strokeColor=none;fillColor=none;align=center;verticalAlign=middle;whiteSpace=wrap;rounded=1;labelBackgroundColor=none;fontColor=#393C56;" parent="WIyWlLk6GJQsqaUBKTNV-1" vertex="1">
          <mxGeometry x="31" y="2390" width="60" height="30" as="geometry" />
        </mxCell>
        <mxCell id="rAAxgLf0EFrrexBY6c0V-48" style="rounded=1;orthogonalLoop=1;jettySize=auto;html=1;entryX=0;entryY=0;entryDx=0;entryDy=0;exitX=0.75;exitY=1;exitDx=0;exitDy=0;endArrow=none;endFill=0;labelBackgroundColor=none;strokeColor=#E07A5F;fontColor=default;" parent="WIyWlLk6GJQsqaUBKTNV-1" source="09vynYddfmvWjdpuQkQc-38" target="rAAxgLf0EFrrexBY6c0V-47" edge="1">
          <mxGeometry relative="1" as="geometry">
            <mxPoint x="-80" y="1810" as="sourcePoint" />
          </mxGeometry>
        </mxCell>
        <mxCell id="a5jgiMxUOnsnWHItlYc4-21" value="&lt;div&gt;&lt;b&gt;necessiter&lt;/b&gt;&lt;/div&gt;&lt;div&gt;&lt;b&gt;quantiter int&lt;br&gt;&lt;/b&gt;&lt;/div&gt;" style="shape=associativeEntity;whiteSpace=wrap;html=1;align=center;labelBackgroundColor=none;fillColor=#F2CC8F;strokeColor=#E07A5F;fontColor=#393C56;rounded=1;" parent="WIyWlLk6GJQsqaUBKTNV-1" vertex="1">
          <mxGeometry x="-80" y="2112.5" width="170" height="70" as="geometry" />
        </mxCell>
        <mxCell id="a5jgiMxUOnsnWHItlYc4-23" value="1,1" style="text;html=1;strokeColor=none;fillColor=none;align=center;verticalAlign=middle;whiteSpace=wrap;rounded=1;labelBackgroundColor=none;fontColor=#393C56;" parent="WIyWlLk6GJQsqaUBKTNV-1" vertex="1">
          <mxGeometry x="-50" y="2082.5" width="60" height="30" as="geometry" />
        </mxCell>
        <mxCell id="rAAxgLf0EFrrexBY6c0V-0" value="Participe" style="shape=rhombus;perimeter=rhombusPerimeter;whiteSpace=wrap;html=1;align=center;fillStyle=auto;labelBackgroundColor=none;fillColor=#F2CC8F;strokeColor=#E07A5F;fontColor=#393C56;rounded=1;" parent="WIyWlLk6GJQsqaUBKTNV-1" vertex="1">
          <mxGeometry x="-700" y="1725" width="160" height="100" as="geometry" />
        </mxCell>
        <mxCell id="rAAxgLf0EFrrexBY6c0V-1" style="rounded=1;orthogonalLoop=1;jettySize=auto;html=1;entryX=0.033;entryY=0.506;entryDx=0;entryDy=0;endArrow=none;endFill=0;exitX=1;exitY=0.5;exitDx=0;exitDy=0;labelBackgroundColor=none;strokeColor=#E07A5F;fontColor=default;entryPerimeter=0;" parent="WIyWlLk6GJQsqaUBKTNV-1" source="wDKFszwRhM4f30pZds1r-48" target="rAAxgLf0EFrrexBY6c0V-0" edge="1">
          <mxGeometry relative="1" as="geometry">
            <mxPoint x="-854" y="1668" as="targetPoint" />
          </mxGeometry>
        </mxCell>
        <mxCell id="rAAxgLf0EFrrexBY6c0V-2" style="rounded=1;orthogonalLoop=1;jettySize=auto;html=1;entryX=0.887;entryY=0.393;entryDx=0;entryDy=0;endArrow=none;endFill=0;labelBackgroundColor=none;strokeColor=#E07A5F;fontColor=default;exitX=0;exitY=0.5;exitDx=0;exitDy=0;entryPerimeter=0;" parent="WIyWlLk6GJQsqaUBKTNV-1" source="09vynYddfmvWjdpuQkQc-38" target="rAAxgLf0EFrrexBY6c0V-0" edge="1">
          <mxGeometry relative="1" as="geometry">
            <mxPoint x="-250" y="1700" as="sourcePoint" />
          </mxGeometry>
        </mxCell>
        <mxCell id="rAAxgLf0EFrrexBY6c0V-4" value="Appartient" style="shape=rhombus;perimeter=rhombusPerimeter;whiteSpace=wrap;html=1;align=center;fillStyle=auto;labelBackgroundColor=none;fillColor=#F2CC8F;strokeColor=#E07A5F;fontColor=#393C56;rounded=1;" parent="WIyWlLk6GJQsqaUBKTNV-1" vertex="1">
          <mxGeometry x="-1230" y="1955" width="160" height="100" as="geometry" />
        </mxCell>
        <mxCell id="rAAxgLf0EFrrexBY6c0V-6" value="prepare" style="shape=rhombus;perimeter=rhombusPerimeter;whiteSpace=wrap;html=1;align=center;fillStyle=auto;labelBackgroundColor=none;fillColor=#F2CC8F;strokeColor=#E07A5F;fontColor=#393C56;rounded=1;" parent="WIyWlLk6GJQsqaUBKTNV-1" vertex="1">
          <mxGeometry x="-512" y="1510" width="160" height="100" as="geometry" />
        </mxCell>
        <mxCell id="rAAxgLf0EFrrexBY6c0V-11" style="rounded=1;orthogonalLoop=1;jettySize=auto;html=1;entryX=0.25;entryY=0;entryDx=0;entryDy=0;endArrow=none;endFill=0;labelBackgroundColor=none;strokeColor=#E07A5F;fontColor=default;" parent="WIyWlLk6GJQsqaUBKTNV-1" source="rAAxgLf0EFrrexBY6c0V-9" target="n8KyGZuKO7ytAvBbDKDA-16" edge="1">
          <mxGeometry relative="1" as="geometry" />
        </mxCell>
        <mxCell id="rAAxgLf0EFrrexBY6c0V-9" value="organiser" style="shape=rhombus;perimeter=rhombusPerimeter;whiteSpace=wrap;html=1;align=center;fillStyle=auto;labelBackgroundColor=none;fillColor=#F2CC8F;strokeColor=#E07A5F;fontColor=#393C56;rounded=1;" parent="WIyWlLk6GJQsqaUBKTNV-1" vertex="1">
          <mxGeometry x="-370" y="1889.5" width="160" height="100" as="geometry" />
        </mxCell>
        <mxCell id="rAAxgLf0EFrrexBY6c0V-13" style="rounded=1;orthogonalLoop=1;jettySize=auto;html=1;entryX=0.5;entryY=1;entryDx=0;entryDy=0;endArrow=none;endFill=0;exitX=0.5;exitY=0;exitDx=0;exitDy=0;labelBackgroundColor=none;strokeColor=#E07A5F;fontColor=default;" parent="WIyWlLk6GJQsqaUBKTNV-1" source="rAAxgLf0EFrrexBY6c0V-15" target="wDKFszwRhM4f30pZds1r-86" edge="1">
          <mxGeometry relative="1" as="geometry">
            <mxPoint x="-984.9790794979081" y="1278.1380753138073" as="sourcePoint" />
          </mxGeometry>
        </mxCell>
        <mxCell id="rAAxgLf0EFrrexBY6c0V-14" style="rounded=1;orthogonalLoop=1;jettySize=auto;html=1;entryX=0.5;entryY=0;entryDx=0;entryDy=0;endArrow=none;endFill=0;exitX=0.5;exitY=1;exitDx=0;exitDy=0;labelBackgroundColor=none;strokeColor=#E07A5F;fontColor=default;" parent="WIyWlLk6GJQsqaUBKTNV-1" source="rAAxgLf0EFrrexBY6c0V-15" target="wDKFszwRhM4f30pZds1r-38" edge="1">
          <mxGeometry relative="1" as="geometry">
            <mxPoint x="-991.5037593984962" y="1374.0601503759399" as="sourcePoint" />
          </mxGeometry>
        </mxCell>
        <mxCell id="rAAxgLf0EFrrexBY6c0V-15" value="&lt;div&gt;&lt;b&gt;necessiter&lt;/b&gt;&lt;/div&gt;&lt;div&gt;&lt;b&gt;quantiter int&lt;br&gt;&lt;/b&gt;&lt;/div&gt;" style="shape=associativeEntity;whiteSpace=wrap;html=1;align=center;labelBackgroundColor=none;fillColor=#F2CC8F;strokeColor=#E07A5F;fontColor=#393C56;rounded=1;" parent="WIyWlLk6GJQsqaUBKTNV-1" vertex="1">
          <mxGeometry x="-1079" y="1295" width="170" height="70" as="geometry" />
        </mxCell>
        <mxCell id="rAAxgLf0EFrrexBY6c0V-18" value="est dans" style="shape=rhombus;perimeter=rhombusPerimeter;whiteSpace=wrap;html=1;align=center;fillStyle=auto;labelBackgroundColor=none;fillColor=#F2CC8F;strokeColor=#E07A5F;fontColor=#393C56;rounded=1;" parent="WIyWlLk6GJQsqaUBKTNV-1" vertex="1">
          <mxGeometry x="31" y="1470" width="160" height="100" as="geometry" />
        </mxCell>
        <mxCell id="rAAxgLf0EFrrexBY6c0V-24" style="rounded=1;orthogonalLoop=1;jettySize=auto;html=1;endArrow=none;endFill=0;exitX=1;exitY=0.5;exitDx=0;exitDy=0;labelBackgroundColor=none;strokeColor=#E07A5F;fontColor=default;" parent="WIyWlLk6GJQsqaUBKTNV-1" source="rAAxgLf0EFrrexBY6c0V-22" target="n8KyGZuKO7ytAvBbDKDA-22" edge="1">
          <mxGeometry relative="1" as="geometry">
            <mxPoint x="476.2927653820152" y="1115.8079783637595" as="sourcePoint" />
          </mxGeometry>
        </mxCell>
        <mxCell id="rAAxgLf0EFrrexBY6c0V-22" value="Posede" style="shape=rhombus;perimeter=rhombusPerimeter;whiteSpace=wrap;html=1;align=center;fillStyle=auto;labelBackgroundColor=none;fillColor=#F2CC8F;strokeColor=#E07A5F;fontColor=#393C56;rounded=1;" parent="WIyWlLk6GJQsqaUBKTNV-1" vertex="1">
          <mxGeometry x="350" y="1110" width="160" height="100" as="geometry" />
        </mxCell>
        <mxCell id="rAAxgLf0EFrrexBY6c0V-25" value="comporte" style="shape=rhombus;perimeter=rhombusPerimeter;whiteSpace=wrap;html=1;align=center;fillStyle=auto;labelBackgroundColor=none;fillColor=#F2CC8F;strokeColor=#E07A5F;fontColor=#393C56;rounded=1;" parent="WIyWlLk6GJQsqaUBKTNV-1" vertex="1">
          <mxGeometry x="584" y="840" width="160" height="100" as="geometry" />
        </mxCell>
        <mxCell id="rAAxgLf0EFrrexBY6c0V-33" style="rounded=1;orthogonalLoop=1;jettySize=auto;html=1;entryX=0;entryY=0.5;entryDx=0;entryDy=0;exitX=0.962;exitY=0.55;exitDx=0;exitDy=0;endArrow=none;endFill=0;labelBackgroundColor=none;strokeColor=#E07A5F;fontColor=default;exitPerimeter=0;" parent="WIyWlLk6GJQsqaUBKTNV-1" source="rAAxgLf0EFrrexBY6c0V-31" target="09vynYddfmvWjdpuQkQc-31" edge="1">
          <mxGeometry relative="1" as="geometry" />
        </mxCell>
        <mxCell id="rAAxgLf0EFrrexBY6c0V-31" value="Contient" style="shape=rhombus;perimeter=rhombusPerimeter;whiteSpace=wrap;html=1;align=center;fillStyle=auto;labelBackgroundColor=none;fillColor=#F2CC8F;strokeColor=#E07A5F;fontColor=#393C56;rounded=1;" parent="WIyWlLk6GJQsqaUBKTNV-1" vertex="1">
          <mxGeometry x="186" y="1825" width="160" height="100" as="geometry" />
        </mxCell>
        <mxCell id="rAAxgLf0EFrrexBY6c0V-32" style="rounded=1;orthogonalLoop=1;jettySize=auto;html=1;entryX=0.043;entryY=0.526;entryDx=0;entryDy=0;endArrow=none;endFill=0;labelBackgroundColor=none;strokeColor=#E07A5F;fontColor=default;entryPerimeter=0;exitX=-0.044;exitY=0.949;exitDx=0;exitDy=0;exitPerimeter=0;" parent="WIyWlLk6GJQsqaUBKTNV-1" source="TyVPyKYXxjt4fqLiTHCA-17" target="rAAxgLf0EFrrexBY6c0V-31" edge="1">
          <mxGeometry relative="1" as="geometry">
            <mxPoint x="-50" y="1790" as="sourcePoint" />
          </mxGeometry>
        </mxCell>
        <mxCell id="TyVPyKYXxjt4fqLiTHCA-0" value="0,n" style="text;html=1;strokeColor=none;fillColor=none;align=center;verticalAlign=middle;whiteSpace=wrap;rounded=1;labelBackgroundColor=none;fontColor=#393C56;" parent="WIyWlLk6GJQsqaUBKTNV-1" vertex="1">
          <mxGeometry x="-969" y="1125" width="60" height="30" as="geometry" />
        </mxCell>
        <mxCell id="TyVPyKYXxjt4fqLiTHCA-1" value="1,1" style="text;html=1;strokeColor=none;fillColor=none;align=center;verticalAlign=middle;whiteSpace=wrap;rounded=1;labelBackgroundColor=none;fontColor=#393C56;" parent="WIyWlLk6GJQsqaUBKTNV-1" vertex="1">
          <mxGeometry x="-1000" y="1265" width="60" height="30" as="geometry" />
        </mxCell>
        <mxCell id="TyVPyKYXxjt4fqLiTHCA-2" value="1,1" style="text;html=1;strokeColor=none;fillColor=none;align=center;verticalAlign=middle;whiteSpace=wrap;rounded=1;labelBackgroundColor=none;fontColor=#393C56;" parent="WIyWlLk6GJQsqaUBKTNV-1" vertex="1">
          <mxGeometry x="-1000" y="1375" width="60" height="30" as="geometry" />
        </mxCell>
        <mxCell id="TyVPyKYXxjt4fqLiTHCA-3" value="0,n" style="text;html=1;strokeColor=none;fillColor=none;align=center;verticalAlign=middle;whiteSpace=wrap;rounded=1;labelBackgroundColor=none;fontColor=#393C56;" parent="WIyWlLk6GJQsqaUBKTNV-1" vertex="1">
          <mxGeometry x="-1000" y="1425.5" width="60" height="30" as="geometry" />
        </mxCell>
        <mxCell id="TyVPyKYXxjt4fqLiTHCA-4" value="1,n" style="text;html=1;strokeColor=none;fillColor=none;align=center;verticalAlign=middle;whiteSpace=wrap;rounded=1;labelBackgroundColor=none;fontColor=#393C56;" parent="WIyWlLk6GJQsqaUBKTNV-1" vertex="1">
          <mxGeometry x="-887" y="1670" width="60" height="30" as="geometry" />
        </mxCell>
        <mxCell id="TyVPyKYXxjt4fqLiTHCA-5" value="0,n" style="text;html=1;strokeColor=none;fillColor=none;align=center;verticalAlign=middle;whiteSpace=wrap;rounded=1;labelBackgroundColor=none;fontColor=#393C56;" parent="WIyWlLk6GJQsqaUBKTNV-1" vertex="1">
          <mxGeometry x="-310" y="1710" width="60" height="30" as="geometry" />
        </mxCell>
        <mxCell id="TyVPyKYXxjt4fqLiTHCA-6" value="0,n" style="text;html=1;strokeColor=none;fillColor=none;align=center;verticalAlign=middle;whiteSpace=wrap;rounded=1;labelBackgroundColor=none;fontColor=#393C56;" parent="WIyWlLk6GJQsqaUBKTNV-1" vertex="1">
          <mxGeometry x="-990" y="1895" width="60" height="30" as="geometry" />
        </mxCell>
        <mxCell id="TyVPyKYXxjt4fqLiTHCA-8" value="0,n" style="text;html=1;strokeColor=none;fillColor=none;align=center;verticalAlign=middle;whiteSpace=wrap;rounded=1;labelBackgroundColor=none;fontColor=#393C56;" parent="WIyWlLk6GJQsqaUBKTNV-1" vertex="1">
          <mxGeometry x="-1158" y="2077.5" width="60" height="30" as="geometry" />
        </mxCell>
        <mxCell id="TyVPyKYXxjt4fqLiTHCA-9" value="1,1" style="text;html=1;strokeColor=none;fillColor=none;align=center;verticalAlign=middle;whiteSpace=wrap;rounded=1;labelBackgroundColor=none;fontColor=#393C56;" parent="WIyWlLk6GJQsqaUBKTNV-1" vertex="1">
          <mxGeometry x="-272" y="1790" width="60" height="30" as="geometry" />
        </mxCell>
        <mxCell id="TyVPyKYXxjt4fqLiTHCA-10" value="0,n" style="text;html=1;strokeColor=none;fillColor=none;align=center;verticalAlign=middle;whiteSpace=wrap;rounded=1;labelBackgroundColor=none;fontColor=#393C56;" parent="WIyWlLk6GJQsqaUBKTNV-1" vertex="1">
          <mxGeometry x="-300" y="2082.5" width="60" height="30" as="geometry" />
        </mxCell>
        <mxCell id="TyVPyKYXxjt4fqLiTHCA-11" value="1,n" style="text;html=1;strokeColor=none;fillColor=none;align=center;verticalAlign=middle;whiteSpace=wrap;rounded=1;labelBackgroundColor=none;fontColor=#393C56;" parent="WIyWlLk6GJQsqaUBKTNV-1" vertex="1">
          <mxGeometry x="-290" y="1630" width="60" height="30" as="geometry" />
        </mxCell>
        <mxCell id="rAAxgLf0EFrrexBY6c0V-39" style="rounded=1;orthogonalLoop=1;jettySize=auto;html=1;entryX=0;entryY=0.5;entryDx=0;entryDy=0;endArrow=none;endFill=0;labelBackgroundColor=none;strokeColor=#E07A5F;fontColor=default;" parent="WIyWlLk6GJQsqaUBKTNV-1" source="rAAxgLf0EFrrexBY6c0V-37" target="wDKFszwRhM4f30pZds1r-3" edge="1">
          <mxGeometry relative="1" as="geometry" />
        </mxCell>
        <mxCell id="rAAxgLf0EFrrexBY6c0V-37" value="Contient" style="shape=rhombus;perimeter=rhombusPerimeter;whiteSpace=wrap;html=1;align=center;fillStyle=auto;labelBackgroundColor=none;fillColor=#F2CC8F;strokeColor=#E07A5F;fontColor=#393C56;rounded=1;" parent="WIyWlLk6GJQsqaUBKTNV-1" vertex="1">
          <mxGeometry x="186" y="1654" width="160" height="100" as="geometry" />
        </mxCell>
        <mxCell id="TyVPyKYXxjt4fqLiTHCA-12" value="0,n" style="text;html=1;strokeColor=none;fillColor=none;align=center;verticalAlign=middle;whiteSpace=wrap;rounded=1;labelBackgroundColor=none;fontColor=#393C56;" parent="WIyWlLk6GJQsqaUBKTNV-1" vertex="1">
          <mxGeometry x="-545" y="1380" width="60" height="30" as="geometry" />
        </mxCell>
        <mxCell id="TyVPyKYXxjt4fqLiTHCA-13" value="1,1" style="text;html=1;strokeColor=none;fillColor=none;align=center;verticalAlign=middle;whiteSpace=wrap;rounded=1;labelBackgroundColor=none;fontColor=#393C56;" parent="WIyWlLk6GJQsqaUBKTNV-1" vertex="1">
          <mxGeometry x="-60" y="1570" width="60" height="30" as="geometry" />
        </mxCell>
        <mxCell id="rAAxgLf0EFrrexBY6c0V-41" style="rounded=1;orthogonalLoop=1;jettySize=auto;html=1;entryX=1;entryY=0.5;entryDx=0;entryDy=0;endArrow=none;endFill=0;exitX=0.406;exitY=0.915;exitDx=0;exitDy=0;exitPerimeter=0;labelBackgroundColor=none;strokeColor=#E07A5F;fontColor=default;" parent="WIyWlLk6GJQsqaUBKTNV-1" source="rAAxgLf0EFrrexBY6c0V-40" target="wDKFszwRhM4f30pZds1r-3" edge="1">
          <mxGeometry relative="1" as="geometry" />
        </mxCell>
        <mxCell id="rAAxgLf0EFrrexBY6c0V-42" style="rounded=1;orthogonalLoop=1;jettySize=auto;html=1;entryX=1;entryY=0.5;entryDx=0;entryDy=0;endArrow=none;endFill=0;labelBackgroundColor=none;strokeColor=#E07A5F;fontColor=default;" parent="WIyWlLk6GJQsqaUBKTNV-1" source="rAAxgLf0EFrrexBY6c0V-40" target="n8KyGZuKO7ytAvBbDKDA-14" edge="1">
          <mxGeometry relative="1" as="geometry" />
        </mxCell>
        <mxCell id="TyVPyKYXxjt4fqLiTHCA-15" value="0,n" style="text;html=1;strokeColor=none;fillColor=none;align=center;verticalAlign=middle;whiteSpace=wrap;rounded=1;labelBackgroundColor=none;fontColor=#393C56;" parent="WIyWlLk6GJQsqaUBKTNV-1" vertex="1">
          <mxGeometry x="-49" y="1670" width="60" height="30" as="geometry" />
        </mxCell>
        <mxCell id="rAAxgLf0EFrrexBY6c0V-40" value="est dans" style="shape=rhombus;perimeter=rhombusPerimeter;whiteSpace=wrap;html=1;align=center;fillStyle=auto;labelBackgroundColor=none;fillColor=#F2CC8F;strokeColor=#E07A5F;fontColor=#393C56;rounded=1;" parent="WIyWlLk6GJQsqaUBKTNV-1" vertex="1">
          <mxGeometry x="920" y="1482.5" width="160" height="100" as="geometry" />
        </mxCell>
        <mxCell id="rAAxgLf0EFrrexBY6c0V-45" style="rounded=1;orthogonalLoop=1;jettySize=auto;html=1;entryX=0;entryY=0.5;entryDx=0;entryDy=0;endArrow=none;endFill=0;labelBackgroundColor=none;strokeColor=#E07A5F;fontColor=default;exitX=0.974;exitY=0.5;exitDx=0;exitDy=0;exitPerimeter=0;" parent="WIyWlLk6GJQsqaUBKTNV-1" source="rAAxgLf0EFrrexBY6c0V-43" target="n8KyGZuKO7ytAvBbDKDA-13" edge="1">
          <mxGeometry relative="1" as="geometry">
            <mxPoint x="460" y="1500" as="sourcePoint" />
          </mxGeometry>
        </mxCell>
        <mxCell id="rAAxgLf0EFrrexBY6c0V-43" value="est dans" style="shape=rhombus;perimeter=rhombusPerimeter;whiteSpace=wrap;html=1;align=center;fillStyle=auto;labelBackgroundColor=none;fillColor=#F2CC8F;strokeColor=#E07A5F;fontColor=#393C56;rounded=1;" parent="WIyWlLk6GJQsqaUBKTNV-1" vertex="1">
          <mxGeometry x="300" y="1450" width="160" height="100" as="geometry" />
        </mxCell>
        <mxCell id="TyVPyKYXxjt4fqLiTHCA-14" value="0,n" style="text;html=1;strokeColor=none;fillColor=none;align=center;verticalAlign=middle;whiteSpace=wrap;rounded=1;labelBackgroundColor=none;fontColor=#393C56;" parent="WIyWlLk6GJQsqaUBKTNV-1" vertex="1">
          <mxGeometry x="121" y="1440" width="60" height="30" as="geometry" />
        </mxCell>
        <mxCell id="TyVPyKYXxjt4fqLiTHCA-16" value="0,n" style="text;html=1;strokeColor=none;fillColor=none;align=center;verticalAlign=middle;whiteSpace=wrap;rounded=1;labelBackgroundColor=none;fontColor=#393C56;" parent="WIyWlLk6GJQsqaUBKTNV-1" vertex="1">
          <mxGeometry x="518" y="1700" width="60" height="30" as="geometry" />
        </mxCell>
        <mxCell id="TyVPyKYXxjt4fqLiTHCA-17" value="1,1" style="text;html=1;strokeColor=none;fillColor=none;align=center;verticalAlign=middle;whiteSpace=wrap;rounded=1;labelBackgroundColor=none;fontColor=#393C56;" parent="WIyWlLk6GJQsqaUBKTNV-1" vertex="1">
          <mxGeometry x="-40" y="1754.5" width="60" height="30" as="geometry" />
        </mxCell>
        <mxCell id="TyVPyKYXxjt4fqLiTHCA-18" value="1,1" style="text;html=1;strokeColor=none;fillColor=none;align=center;verticalAlign=middle;whiteSpace=wrap;rounded=1;labelBackgroundColor=none;fontColor=#393C56;" parent="WIyWlLk6GJQsqaUBKTNV-1" vertex="1">
          <mxGeometry x="520" y="1920" width="60" height="30" as="geometry" />
        </mxCell>
        <mxCell id="TyVPyKYXxjt4fqLiTHCA-19" value="1,1" style="text;html=1;strokeColor=none;fillColor=none;align=center;verticalAlign=middle;whiteSpace=wrap;rounded=1;labelBackgroundColor=none;fontColor=#393C56;" parent="WIyWlLk6GJQsqaUBKTNV-1" vertex="1">
          <mxGeometry x="271" y="1240" width="60" height="30" as="geometry" />
        </mxCell>
        <mxCell id="TyVPyKYXxjt4fqLiTHCA-20" value="1,1" style="text;html=1;strokeColor=none;fillColor=none;align=center;verticalAlign=middle;whiteSpace=wrap;rounded=1;labelBackgroundColor=none;fontColor=#393C56;" parent="WIyWlLk6GJQsqaUBKTNV-1" vertex="1">
          <mxGeometry x="518" y="1159" width="60" height="30" as="geometry" />
        </mxCell>
        <mxCell id="TyVPyKYXxjt4fqLiTHCA-21" value="1,1" style="text;html=1;strokeColor=none;fillColor=none;align=center;verticalAlign=middle;whiteSpace=wrap;rounded=1;labelBackgroundColor=none;fontColor=#393C56;" parent="WIyWlLk6GJQsqaUBKTNV-1" vertex="1">
          <mxGeometry x="684" y="980" width="60" height="30" as="geometry" />
        </mxCell>
        <mxCell id="rAAxgLf0EFrrexBY6c0V-47" value="Transporte" style="shape=rhombus;perimeter=rhombusPerimeter;whiteSpace=wrap;html=1;align=center;fillStyle=auto;labelBackgroundColor=none;fillColor=#F2CC8F;strokeColor=#E07A5F;fontColor=#393C56;rounded=1;" parent="WIyWlLk6GJQsqaUBKTNV-1" vertex="1">
          <mxGeometry x="151" y="1982.5" width="160" height="100" as="geometry" />
        </mxCell>
        <mxCell id="TyVPyKYXxjt4fqLiTHCA-22" value="1,1" style="text;html=1;strokeColor=none;fillColor=none;align=center;verticalAlign=middle;whiteSpace=wrap;rounded=1;labelBackgroundColor=none;fontColor=#393C56;" parent="WIyWlLk6GJQsqaUBKTNV-1" vertex="1">
          <mxGeometry x="670" y="739" width="60" height="30" as="geometry" />
        </mxCell>
        <mxCell id="rAAxgLf0EFrrexBY6c0V-49" style="rounded=1;orthogonalLoop=1;jettySize=auto;html=1;entryX=0.5;entryY=0;entryDx=0;entryDy=0;startArrow=none;startFill=0;endArrow=none;endFill=0;labelBackgroundColor=none;strokeColor=#E07A5F;fontColor=default;" parent="WIyWlLk6GJQsqaUBKTNV-1" source="rAAxgLf0EFrrexBY6c0V-47" target="wDKFszwRhM4f30pZds1r-12" edge="1">
          <mxGeometry relative="1" as="geometry" />
        </mxCell>
        <mxCell id="TyVPyKYXxjt4fqLiTHCA-24" value="0,n" style="text;html=1;strokeColor=none;fillColor=none;align=center;verticalAlign=middle;whiteSpace=wrap;rounded=1;labelBackgroundColor=none;fontColor=#393C56;" parent="WIyWlLk6GJQsqaUBKTNV-1" vertex="1">
          <mxGeometry x="560" y="1460.5" width="60" height="30" as="geometry" />
        </mxCell>
        <mxCell id="TyVPyKYXxjt4fqLiTHCA-25" value="0,n" style="text;html=1;strokeColor=none;fillColor=none;align=center;verticalAlign=middle;whiteSpace=wrap;rounded=1;labelBackgroundColor=none;fontColor=#393C56;" parent="WIyWlLk6GJQsqaUBKTNV-1" vertex="1">
          <mxGeometry x="827" y="1520" width="60" height="30" as="geometry" />
        </mxCell>
        <mxCell id="TyVPyKYXxjt4fqLiTHCA-23" value="1,1" style="text;html=1;strokeColor=none;fillColor=none;align=center;verticalAlign=middle;whiteSpace=wrap;rounded=1;labelBackgroundColor=none;fontColor=#393C56;" parent="WIyWlLk6GJQsqaUBKTNV-1" vertex="1">
          <mxGeometry x="271" y="1420" width="60" height="30" as="geometry" />
        </mxCell>
        <mxCell id="a5jgiMxUOnsnWHItlYc4-22" value="1,1" style="text;html=1;strokeColor=none;fillColor=none;align=center;verticalAlign=middle;whiteSpace=wrap;rounded=1;labelBackgroundColor=none;fontColor=#393C56;" parent="WIyWlLk6GJQsqaUBKTNV-1" vertex="1">
          <mxGeometry x="-40" y="2182.5" width="60" height="30" as="geometry" />
        </mxCell>
        <mxCell id="a5jgiMxUOnsnWHItlYc4-20" value="0,n" style="text;html=1;strokeColor=none;fillColor=none;align=center;verticalAlign=middle;whiteSpace=wrap;rounded=1;labelBackgroundColor=none;fontColor=#393C56;" parent="WIyWlLk6GJQsqaUBKTNV-1" vertex="1">
          <mxGeometry x="-174" y="1790" width="60" height="30" as="geometry" />
        </mxCell>
        <mxCell id="TyVPyKYXxjt4fqLiTHCA-26" value="1,1" style="text;html=1;strokeColor=none;fillColor=none;align=center;verticalAlign=middle;whiteSpace=wrap;rounded=1;labelBackgroundColor=none;fontColor=#393C56;" parent="WIyWlLk6GJQsqaUBKTNV-1" vertex="1">
          <mxGeometry x="774" y="1670" width="60" height="30" as="geometry" />
        </mxCell>
        <mxCell id="TyVPyKYXxjt4fqLiTHCA-27" value="0,n" style="text;html=1;strokeColor=none;fillColor=none;align=center;verticalAlign=middle;whiteSpace=wrap;rounded=1;labelBackgroundColor=none;fontColor=#393C56;" parent="WIyWlLk6GJQsqaUBKTNV-1" vertex="1">
          <mxGeometry x="-79" y="1795" width="60" height="30" as="geometry" />
        </mxCell>
        <mxCell id="TyVPyKYXxjt4fqLiTHCA-28" value="0,n" style="text;html=1;strokeColor=none;fillColor=none;align=center;verticalAlign=middle;whiteSpace=wrap;rounded=1;labelBackgroundColor=none;fontColor=#393C56;" parent="WIyWlLk6GJQsqaUBKTNV-1" vertex="1">
          <mxGeometry x="490" y="2123" width="60" height="30" as="geometry" />
        </mxCell>
        <mxCell id="rAAxgLf0EFrrexBY6c0V-59" style="rounded=1;orthogonalLoop=1;jettySize=auto;html=1;entryX=0;entryY=0.5;entryDx=0;entryDy=0;endArrow=none;endFill=0;labelBackgroundColor=none;strokeColor=#E07A5F;fontColor=default;" parent="WIyWlLk6GJQsqaUBKTNV-1" source="rAAxgLf0EFrrexBY6c0V-55" target="09vynYddfmvWjdpuQkQc-42" edge="1">
          <mxGeometry relative="1" as="geometry" />
        </mxCell>
        <mxCell id="rAAxgLf0EFrrexBY6c0V-55" value="est orga avec" style="shape=rhombus;perimeter=rhombusPerimeter;whiteSpace=wrap;html=1;align=center;fillStyle=auto;labelBackgroundColor=none;fillColor=#F2CC8F;strokeColor=#E07A5F;fontColor=#393C56;rounded=1;" parent="WIyWlLk6GJQsqaUBKTNV-1" vertex="1">
          <mxGeometry x="-512" y="1784.5" width="160" height="100" as="geometry" />
        </mxCell>
        <mxCell id="TyVPyKYXxjt4fqLiTHCA-29" value="1,1" style="text;html=1;strokeColor=none;fillColor=none;align=center;verticalAlign=middle;whiteSpace=wrap;rounded=1;labelBackgroundColor=none;fontColor=#393C56;" parent="WIyWlLk6GJQsqaUBKTNV-1" vertex="1">
          <mxGeometry x="-156" y="1295" width="60" height="30" as="geometry" />
        </mxCell>
        <mxCell id="TyVPyKYXxjt4fqLiTHCA-30" value="1,1" style="text;html=1;strokeColor=none;fillColor=none;align=center;verticalAlign=middle;whiteSpace=wrap;rounded=1;labelBackgroundColor=none;fontColor=#393C56;" parent="WIyWlLk6GJQsqaUBKTNV-1" vertex="1">
          <mxGeometry x="-150" y="1155" width="60" height="30" as="geometry" />
        </mxCell>
        <mxCell id="TyVPyKYXxjt4fqLiTHCA-31" value="0,n" style="text;html=1;strokeColor=none;fillColor=none;align=center;verticalAlign=middle;whiteSpace=wrap;rounded=1;labelBackgroundColor=none;fontColor=#393C56;" parent="WIyWlLk6GJQsqaUBKTNV-1" vertex="1">
          <mxGeometry x="-140" y="1577.5" width="60" height="30" as="geometry" />
        </mxCell>
        <mxCell id="TyVPyKYXxjt4fqLiTHCA-32" value="0,n" style="text;html=1;strokeColor=none;fillColor=none;align=center;verticalAlign=middle;whiteSpace=wrap;rounded=1;labelBackgroundColor=none;fontColor=#393C56;" parent="WIyWlLk6GJQsqaUBKTNV-1" vertex="1">
          <mxGeometry x="-120" y="910" width="60" height="30" as="geometry" />
        </mxCell>
        <mxCell id="TyVPyKYXxjt4fqLiTHCA-33" value="1,1" style="text;html=1;strokeColor=none;fillColor=none;align=center;verticalAlign=middle;whiteSpace=wrap;rounded=1;labelBackgroundColor=none;fontColor=#393C56;" parent="WIyWlLk6GJQsqaUBKTNV-1" vertex="1">
          <mxGeometry x="-290" y="1754" width="60" height="30" as="geometry" />
        </mxCell>
        <mxCell id="TyVPyKYXxjt4fqLiTHCA-35" value="1,1" style="text;html=1;strokeColor=none;fillColor=none;align=center;verticalAlign=middle;whiteSpace=wrap;rounded=1;labelBackgroundColor=none;fontColor=#393C56;" parent="WIyWlLk6GJQsqaUBKTNV-1" vertex="1">
          <mxGeometry x="-500" y="1884.5" width="60" height="30" as="geometry" />
        </mxCell>
        <mxCell id="rAAxgLf0EFrrexBY6c0V-62" style="rounded=1;orthogonalLoop=1;jettySize=auto;html=1;entryX=0.5;entryY=1;entryDx=0;entryDy=0;endArrow=none;endFill=0;labelBackgroundColor=none;strokeColor=#E07A5F;fontColor=default;" parent="WIyWlLk6GJQsqaUBKTNV-1" source="rAAxgLf0EFrrexBY6c0V-60" target="n8KyGZuKO7ytAvBbDKDA-54" edge="1">
          <mxGeometry relative="1" as="geometry" />
        </mxCell>
        <mxCell id="rAAxgLf0EFrrexBY6c0V-60" value="avoir" style="shape=rhombus;perimeter=rhombusPerimeter;whiteSpace=wrap;html=1;align=center;fillStyle=auto;labelBackgroundColor=none;fillColor=#F2CC8F;strokeColor=#E07A5F;fontColor=#393C56;rounded=1;" parent="WIyWlLk6GJQsqaUBKTNV-1" vertex="1">
          <mxGeometry x="570" y="400" width="160" height="100" as="geometry" />
        </mxCell>
        <mxCell id="TyVPyKYXxjt4fqLiTHCA-38" value="0,n" style="text;html=1;strokeColor=none;fillColor=none;align=center;verticalAlign=middle;whiteSpace=wrap;rounded=1;labelBackgroundColor=none;fontColor=#393C56;" parent="WIyWlLk6GJQsqaUBKTNV-1" vertex="1">
          <mxGeometry x="660" y="530" width="60" height="30" as="geometry" />
        </mxCell>
        <mxCell id="TyVPyKYXxjt4fqLiTHCA-39" value="1,1" style="text;html=1;strokeColor=none;fillColor=none;align=center;verticalAlign=middle;whiteSpace=wrap;rounded=1;labelBackgroundColor=none;fontColor=#393C56;" parent="WIyWlLk6GJQsqaUBKTNV-1" vertex="1">
          <mxGeometry x="570" y="290" width="60" height="30" as="geometry" />
        </mxCell>
      </root>
    </mxGraphModel>
  </diagram>
</mxfile>
